<?xml version="1.0" encoding="UTF-8"?>
<svg id="Layer_1" xmlns="http://www.w3.org/2000/svg" width="256" height="256" version="1.1" viewBox="0 0 256 256">
  <!-- Generator: Adobe Illustrator 29.8.4, SVG Export Plug-In . SVG Version: 2.1.1 Build 6)  -->
  <defs>
    <style>
      .st0 {
        fill: #fff;
      }
    </style>
  </defs>
  <path class="st0" d="M118.32,94.88S105.12,14.24,56.6,14.43c-32.7.12-45.47,31.53-21.77,38.59,0,0-28.1,10.14-28.1,28.09s44.52,36.87,111.59,13.75h0ZM138.43,156.58s9.42,81.16,57.9,83.24c32.67,1.41,46.91-29.37,23.56-37.54,0,0,28.54-8.8,29.37-26.74.83-17.95-42.76-38.93-110.83-18.96ZM100.18,140.44s-78.46,22.81-72.42,70.97c4.06,32.44,36.77,41.34,40.94,16.98,0,0,13.44,26.66,31.27,24.49s31.25-48.65.21-112.44ZM158.75,114.74s80.49-14.06,79.79-62.58c-.48-32.69-32.02-45.14-38.83-21.36,0,0-10.42-27.98-28.4-27.79-17.96.19-36.4,44.92-12.56,111.74Z"/>
</svg>