<?xml version="1.0" encoding="UTF-8"?>
<svg id="Layer_1" xmlns="http://www.w3.org/2000/svg" width="256" height="256" version="1.1" viewBox="0 0 256 256">
  <!-- Generator: Adobe Illustrator 29.8.4, SVG Export Plug-In . SVG Version: 2.1.1 Build 6)  -->
  <defs>
    <style>
      .st0 {
        fill: #fff;
      }

      .st1 {
        display: none;
      }
    </style>
  </defs>
  <g class="st1">
    <path class="st0" d="M160.56,224.92l-14.24-37.2H54.48l-14.24,37.2H3.05L79.19,31.08h42.43l76.14,193.84h-37.2,0ZM100.4,59.85l-36.33,97.94h72.66l-36.33-97.94h0,0Z"/>
    <path class="st0" d="M218.95,224.92V31.08h34v193.84h-34Z"/>
  </g>
  <g>
    <path class="st0" d="M2.22,207.43L48.29,47.82c.16-.57.69-.96,1.28-.96h33.4c.59,0,1.12.39,1.28.96l46.06,159.61c.25.85-.39,1.7-1.28,1.7h-26.33c-.61,0-1.14-.41-1.29-.99l-33.86-128.63c-.15-.59-.68-.99-1.29-.99h0c-.61,0-1.14.41-1.29.99L31.12,208.15c-.15.59-.68.99-1.29.99H3.5c-.89,0-1.53-.85-1.28-1.7h0ZM24.58,173.51v-22.6c0-.74.6-1.33,1.33-1.33h79.58c.74,0,1.33.6,1.33,1.33v22.6c0,.74-.6,1.33-1.33,1.33H25.91c-.74,0-1.33-.6-1.33-1.33h0Z"/>
    <path class="st0" d="M152.86,70.44v-22.24c0-.74.6-1.33,1.33-1.33h98.31c.74,0,1.33.6,1.33,1.33v22.24c0,.74-.6,1.33-1.33,1.33h-98.31c-.74,0-1.33-.6-1.33-1.33h0ZM152.86,207.81v-22.42c0-.74.6-1.33,1.33-1.33h98.31c.74,0,1.33.6,1.33,1.33v22.42c0,.74-.6,1.33-1.33,1.33h-98.31c-.74,0-1.33-.6-1.33-1.33h0ZM189.64,207.81V48.19c0-.74.6-1.33,1.33-1.33h24.52c.74,0,1.33.6,1.33,1.33v159.61c0,.74-.6,1.33-1.33,1.33h-24.52c-.74,0-1.33-.6-1.33-1.33h0Z"/>
  </g>
</svg>