<?xml version="1.0" encoding="UTF-8"?>
<svg id="Layer_1" xmlns="http://www.w3.org/2000/svg" width="256" height="256" version="1.1" viewBox="0 0 256 256">
  <!-- Generator: Adobe Illustrator 29.8.4, SVG Export Plug-In . SVG Version: 2.1.1 Build 6)  -->
  <defs>
    <style>
      .st0 {
        fill: #fff;
      }
    </style>
  </defs>
  <path class="st0" d="M213.05,2.86c5.27,1.22,10.6,2.37,15.49,4.8,11.35,5.66,20.91,17.86,23.39,30.38.55,2.78.49,5.62,1.2,8.33-.04.81.05,1.64,0,2.44-.67,9.66-4.16,19.88-10.5,27.38-5.18,6.12-9.79,7.66-16.39,2.2-16.92-13.98-32.07-34.32-48.89-48.88-7.34-8.15-1.27-14.28,5.92-19.03,5.58-3.68,13.81-7.01,20.49-7.62h9.29Z"/>
  <path class="st0" d="M2.85,48.81v-1.96C4.38,18.27,30.14-2.14,58.58,4.56c9.24,2.18,30.62,12.72,20.05,24.46-17.07,14.79-32.45,35.4-49.62,49.62-8.23,6.81-13.8,1.25-18.54-5.92-4.31-6.51-7.47-16.25-7.62-23.91h0Z"/>
  <path class="st0" d="M219.4,253.14h-3.91l-2.92-1.24c-10.06-10.77-17.73-23.61-27.24-34.89-.87-.22-7.57,4.56-9.11,5.42-33.47,18.6-74.71,16.96-105.68-5.91l-25.18,33.44-4.88,3.18h-3.91c-5.65-2.09-8.28-6.46-6.38-12.49l26.35-35.75c-7.04-8.44-13.34-16.8-17.95-26.87C5.17,105.06,67.78,25.42,146.57,40.25c49.34,9.28,83.75,55.62,79.18,105.59-2,21.86-11.7,42.96-26.83,58.74l26.44,36.01c2.48,5.34-1.04,10.47-5.96,12.56h0,0ZM126.91,74.33c-4.88.49-7.65,4.42-8.15,9-1.73,16.09,1.35,34.7-.28,51.05l-24.92,33.25c-5.21,10.89,6.46,19.27,15.12,9.75,7.21-7.92,19.79-24.93,25.57-34.07,1.53-2.42,2.3-3.75,2.55-6.74,1.49-17.29-1.11-36.72-.06-54.23-.74-4.6-5.01-8.49-9.84-8h0Z"/>
</svg>