<?xml version="1.0" encoding="UTF-8"?>
<svg id="Layer_1" xmlns="http://www.w3.org/2000/svg" width="256" height="256" version="1.1" viewBox="0 0 256 256">
  <!-- Generator: Adobe Illustrator 29.8.4, SVG Export Plug-In . SVG Version: 2.1.1 Build 6)  -->
  <defs>
    <style>
      .st0 {
        fill: #fff;
      }
    </style>
  </defs>
  <path class="st0" d="M220.07,25.55l-13.1,13.1c33.43,54.82,33.43,123.96,0,178.78l13.03,13.03c39.98-62.29,40.01-142.6.07-204.91h0ZM117.15,40.34c-1.26,0-2.73.51-4.16,1.69l-55.51,46.14c-2.48,2.06-3.54,2.39-6.97,2.39H14.8c-4.9,0-8.8,3.91-8.8,8.8v57.13c0,4.9,3.91,8.8,8.8,8.8h35.71c3.43,0,4.5.34,6.97,2.39l55.51,46.14c3.8,3.16,7.89,1.64,7.89-2.11V44.14c0-2.34-1.64-3.8-3.73-3.8h0ZM188.51,57.1l-13.1,13.1c22.53,35.22,22.55,80.45,0,115.66l13.03,12.96c29.24-42.64,29.29-99.07.07-141.72h0ZM156.88,88.66l-12.89,12.96c11.73,15.71,11.73,37.12,0,52.83l12.82,12.82c18.57-22.84,18.62-55.76.07-78.61h0Z"/>
</svg>