<?xml version="1.0" encoding="UTF-8"?>
<svg id="Layer_1" xmlns="http://www.w3.org/2000/svg" width="256" height="256" version="1.1" viewBox="0 0 256 256">
  <!-- Generator: Adobe Illustrator 29.8.4, SVG Export Plug-In . SVG Version: 2.1.1 Build 6)  -->
  <path d="M75.74,13.22c0-5.09-4.13-9.22-9.22-9.22s-9.22,4.13-9.22,9.22v19.42c-17.7,1.42-29.32,4.9-37.85,13.43s-12.01,20.15-13.43,37.85h243.98c-1.42-17.7-4.9-29.32-13.43-37.85-8.54-8.54-20.15-12.01-37.85-13.43V13.22c0-5.09-4.13-9.22-9.22-9.22s-9.22,4.13-9.22,9.22v18.6c-8.18-.16-17.35-.16-27.67-.16h-49.19c-10.32,0-19.49,0-27.67.16V13.22Z" fill="#fff"/>
  <path d="M250.96,130.04c0-10.32,0-19.49-.16-27.67H5.2c-.16,8.18-.16,17.35-.16,27.67v24.59c0,46.37,0,69.56,14.41,83.96,14.41,14.41,37.59,14.41,83.96,14.41h49.19c46.37,0,69.56,0,83.96-14.41,14.41-14.41,14.41-37.59,14.41-83.96v-24.59ZM152.59,133.11c-11.88,0-21.52,9.63-21.52,21.52v24.59c0,11.88,9.63,21.52,21.52,21.52s21.52-9.63,21.52-21.52v-24.59c0-11.88-9.63-21.52-21.52-21.52ZM152.59,151.56c-1.7,0-3.07,1.38-3.07,3.07v24.59c0,1.7,1.38,3.07,3.07,3.07s3.07-1.38,3.07-3.07v-24.59c0-1.7-1.38-3.07-3.07-3.07ZM113.08,133.81c3.45,1.43,5.69,4.79,5.69,8.52v49.19c0,5.09-4.13,9.22-9.22,9.22s-9.22-4.13-9.22-9.22v-26.92l-2.7,2.7c-3.6,3.6-9.44,3.6-13.04,0-3.6-3.6-3.6-9.44,0-13.04l18.44-18.44c2.64-2.64,6.6-3.43,10.05-2Z" fill="#fff" fill-rule="evenodd"/>
</svg>