<?xml version="1.0" encoding="UTF-8"?>
<svg id="Layer_1" xmlns="http://www.w3.org/2000/svg" width="256" height="256" version="1.1" viewBox="0 0 256 256">
  <!-- Generator: Adobe Illustrator 29.8.4, SVG Export Plug-In . SVG Version: 2.1.1 Build 6)  -->
  <defs>
    <style>
      .st0 {
        fill: #fff;
      }
    </style>
  </defs>
  <path class="st0" d="M192.49,7c-12.35,0-24.76,5.04-33.64,13.63,3.08,24.76,11.44,40.56,23.48,50.59,11.94,9.95,27.94,14.42,47.08,15.21,7.21-8.62,11.37-19.9,11.37-31.12,0-12.59-5.23-25.25-14.14-34.16-8.9-8.9-21.57-14.15-34.16-14.15ZM151.56,29.74c-4.73,7.64-7.38,16.63-7.38,25.57,0,12.59,5.25,25.25,14.15,34.16,8.9,8.9,21.57,14.15,34.16,14.15,10.02,0,20.09-3.32,28.27-9.17-16.93-1.72-31.99-6.69-43.93-16.63-12.49-10.41-21.22-26.1-25.27-48.07h0ZM136.66,66.07l-34.59,44.95c1.56,10.52,5.61,18.83,11.86,24.78,6.27,5.98,14.87,9.72,26.07,10.53l42.56-35.03c-11.38-2.05-22.07-7.57-30.28-15.78s-13.45-18.4-15.61-29.46h0ZM144.77,99.29s.01,0,.02,0c.1,0,.19,0,.29,0,2.37.02,4.28,1.95,4.27,4.32,0,1.06-.4,2.07-1.11,2.86l-18.41,20.81c-1.55,1.8-4.26,2-6.06.46-1.8-1.55-2-4.26-.46-6.06.02-.03.05-.06.07-.08l18.41-20.81c.75-.88,1.83-1.42,2.98-1.49h0ZM95.19,119.97l-56.12,72.92c1.87,7.15,3.93,11.24,6.71,13.97,2.7,2.65,6.65,4.54,12.64,6.66l72.61-59.8c-9.16-1.94-16.95-5.9-23.02-11.69-6.09-5.8-10.37-13.32-12.81-22.07h0ZM35.29,207.09c-4.89,2.89-9.32,7.56-12.41,13.1-5.18,9.29-6.18,19.98-1.21,27.08,3.58,2.33,5.67,2.58,7.43,2.33.96-.14,1.94-.51,3.02-1.01-1.71-5.14-3.38-11.23-1.34-17.88,1.63-5.3,5.54-10.22,12.59-14.76-1.29-.89-2.51-1.88-3.62-2.98-1.73-1.7-3.19-3.64-4.46-5.89h0Z"/>
</svg>