<?xml version="1.0" encoding="UTF-8"?>
<svg id="Layer_1" xmlns="http://www.w3.org/2000/svg" width="256" height="256" version="1.1" viewBox="0 0 256 256">
  <!-- Generator: Adobe Illustrator 29.8.4, SVG Export Plug-In . SVG Version: 2.1.1 Build 6)  -->
  <defs>
    <style>
      .st0 {
        fill: #fff;
      }

      .st1 {
        display: none;
      }
    </style>
  </defs>
  <g class="st1">
    <path class="st0" d="M160.56,224.92l-14.24-37.2H54.48l-14.24,37.2H3.05L79.19,31.08h42.43l76.14,193.84h-37.2ZM100.4,59.85l-36.33,97.94h72.66l-36.33-97.94h0Z"/>
    <path class="st0" d="M218.95,224.92V31.08h34v193.84h-34Z"/>
  </g>
  <path class="st0" d="M182.51,20.05c-9.88.49-19.68,4.35-27.81,12.48L17.77,169.47c-8.28,8.28-11.3,18.52-10.24,28.07,1.06,9.54,5.89,18.38,12.68,25.18,6.79,6.79,15.63,11.62,25.18,12.68,9.55,1.06,19.79-1.96,28.07-10.24l117.37-117.37c11.19-11.2,10.37-25.76,2.44-33.68-7.92-7.92-22.49-8.75-33.68,2.44l-78.25,78.25,6.79,6.79,78.25-78.25c8.37-8.37,15.81-6.75,20.11-2.45,4.3,4.3,5.92,11.75-2.45,20.11l-117.37,117.37c-6.39,6.39-13.26,8.26-20.22,7.49-6.96-.77-14.02-4.5-19.45-9.93-5.43-5.44-9.16-12.49-9.93-19.45-.77-6.96,1.1-13.83,7.49-20.22L161.49,39.32c8.72-8.72,18.75-10.98,29.28-9.21,10.53,1.78,21.39,7.98,29.96,16.54,8.57,8.57,14.77,19.43,16.54,29.96,1.78,10.53-.49,20.56-9.21,29.28l-117.37,117.37,6.78,6.78,117.37-117.37c10.84-10.84,14.08-24.65,11.88-37.66-2.2-13.01-9.45-25.37-19.22-35.15-9.77-9.77-22.14-17.02-35.15-19.22-3.25-.55-6.56-.76-9.85-.59h0Z"/>
</svg>