<?xml version="1.0" encoding="UTF-8"?>
<svg id="Layer_1" xmlns="http://www.w3.org/2000/svg" width="256" height="256" version="1.1" viewBox="0 0 256 256">
  <!-- Generator: Adobe Illustrator 29.8.4, SVG Export Plug-In . SVG Version: 2.1.1 Build 6)  -->
  <defs>
    <style>
      .st0 {
        fill: #fff;
      }
    </style>
  </defs>
  <path class="st0" d="M63.74,253.62c-6.07,0-10.96-2.21-14.15-6.39-3.28-4.29-4.13-10.3-2.35-16.45l7.18-24.73c.58-1.97.17-4.09-1.07-5.73-1.26-1.64-3.21-2.59-5.28-2.6h-20.65c-6.07,0-10.96-2.21-14.15-6.39-3.28-4.31-4.13-10.3-2.35-16.45l24.68-84.58,2.72-9.29c3.66-12.61,17.01-22.86,29.76-22.86h24.71c2.95,0,5.54-1.92,6.36-4.72l8.16-28.13c3.66-12.61,17.01-22.85,29.77-22.85l52.83-.09h38.67c6.07,0,10.97,2.2,14.15,6.38,3.28,4.29,4.13,10.3,2.35,16.45l-11.06,38.1c-3.66,12.59-17.02,22.83-29.77,22.83l-52.95.11h-24.7c-2.92-.01-5.51,1.91-6.35,4.71l-20.6,70.55c-.58,1.97-.18,4.1,1.07,5.74,1.26,1.64,3.22,2.6,5.29,2.6l34.99-.06h38.57c6.07,0,10.96,2.2,14.15,6.39,3.28,4.29,4.13,10.3,2.35,16.45l-11.07,38.09c-3.65,12.6-17.01,22.84-29.76,22.84l-52.96.11h-38.57.01s0-.01,0-.01Z"/>
</svg>