<?xml version="1.0" encoding="UTF-8"?>
<svg id="Layer_1" xmlns="http://www.w3.org/2000/svg" width="256" height="256" version="1.1" viewBox="0 0 256 256">
  <!-- Generator: Adobe Illustrator 29.8.4, SVG Export Plug-In . SVG Version: 2.1.1 Build 6)  -->
  <defs>
    <style>
      .st0 {
        fill: #fff;
      }
    </style>
  </defs>
  <g id="Image_Selection_crop">
    <path class="st0" d="M250.78,201.08h-32.16v-125.71c-.02-14.52-11.79-26.29-26.31-26.31H43.22V16.91c0-1.61-1.31-2.92-2.92-2.92s-2.92,1.31-2.92,2.92v32.16H5.22c-1.61,0-2.92,1.31-2.92,2.92s1.31,2.92,2.92,2.92h32.16v125.71c.02,14.52,11.79,26.29,26.31,26.31h149.09v32.16c0,1.61,1.31,2.92,2.92,2.92s2.92-1.31,2.92-2.92v-32.16h32.16c1.61,0,2.92-1.31,2.92-2.92s-1.31-2.92-2.92-2.92ZM173.08,201.08l-83.93-83.93c-1.15-1.14-3-1.14-4.15,0l-41.77,41.78V54.92h149.09c11.3.01,20.45,9.17,20.46,20.46v25.08l-15.46-15.46c-1.15-1.14-3-1.14-4.15,0l-63.95,63.95,52.14,52.14h-8.27Z"/>
    <circle class="st0" cx="128" cy="101.69" r="17.54"/>
  </g>
</svg>