<?xml version="1.0" encoding="UTF-8"?>
<svg id="Layer_1" xmlns="http://www.w3.org/2000/svg" width="256" height="256" version="1.1" viewBox="0 0 256 256">
  <!-- Generator: Adobe Illustrator 29.8.4, SVG Export Plug-In . SVG Version: 2.1.1 Build 6)  -->
  <defs>
    <style>
      .st0 {
        fill: #fff;
      }
    </style>
  </defs>
  <path class="st0" d="M137.16,10.71c-1.52,0-3.03.03-4.52.11C80.19,13.44,36.4,57.98,14.44,114.99c-21.95,57,.5,130.2,49.01,128.85,48.52-1.36,9.82-54.04,35.53-79.28,13.21-12.97,31.93-8.4,51.11-3.06l-9.55-12.47-2.28-2.97c-.75.03-1.51.06-2.31.05-4.47-.03-9.67-.29-13.7-3.99-7.54-6.91-7.81-16.98-7.64-25.99.17-9.01.61-17.57-2.2-23.11l-3.09-6.1,6.83-.2c.57-.02,1.14-.03,1.71-.03,8.57-.04,17.53,1.51,25.45,4.9,8.46,3.62,15.87,9.46,19.62,17.93,2.27,5.13,1.99,10.91.34,16.15-.35,1.09-.75,2.15-1.22,3.2l29.79,38.89c3.37-.57,6.61-1.59,9.68-3.21,25.01-13.19,52.8-42.16,47.89-70.01-8.05-45.7-65.22-83.7-112.28-83.84h0ZM170.14,32.35c3.57.16,6.94,1.49,9.72,3.83,8,6.76,9.13,20.09,2.53,29.77,0,0,0,0,0,0-6.6,9.69-18.44,12.06-26.43,5.3,0,0,0,0,0,0-8-6.76-9.13-20.09-2.53-29.77,0,0,0,0,0,0,4.07-5.97,10.37-9.41,16.71-9.13h0ZM105.11,34.77c8.64.26,16.76,8.6,18.77,19.29,2.17,11.5-3.47,21.54-12.59,22.41-9.12.88-18.28-7.74-20.44-19.24,0,0,0,0,0,0-2.17-11.5,3.47-21.54,12.59-22.41.55-.05,1.11-.07,1.67-.05h0ZM57.19,77.95c10.25,0,19.52,8.03,20.7,17.93,1.18,9.9-6.17,17.93-16.42,17.93-10.25,0-19.52-8.03-20.71-17.93-1.18-9.91,6.17-17.94,16.42-17.94h0ZM216.96,80.37c4.28.21,8.18,2.04,11.07,5.2,7.07,7.72,6.36,21.21-1.58,30.12,0,0,0,0,0,0-7.94,8.91-20.12,9.87-27.19,2.15,0,0,0,0,0,0-7.07-7.72-6.36-21.21,1.58-30.12h0c4.39-4.92,10.32-7.63,16.11-7.35h0ZM122.47,95.54c1.62,6.93.97,14.21.84,20.77-.17,8.62.4,15.37,4.82,19.42.65.59,4.35,1.68,7.9,1.71,1.77.01,3.49-.12,4.73-.29.43-.06.87-.13,1.29-.23l7.06-5.08h.01c2.42-1.73,4.73-5.09,5.89-8.76,1.16-3.67,1.12-7.49,0-10.03-2.62-5.93-8.05-10.45-15.09-13.46-5.28-2.26-11.39-3.61-17.45-4.04h0ZM159.07,141.01l-7.8,5.97,75.3,98.32,7.79-5.97-75.3-98.32h0ZM50.37,173.65c12.48,0,23.77,11.62,25.21,25.96,1.44,14.34-7.51,25.96-19.99,25.96h0c-12.48,0-23.77-11.62-25.21-25.96-1.44-14.34,7.51-25.96,19.99-25.96h0Z"/>
</svg>