<?xml version="1.0" encoding="UTF-8"?>
<svg id="Layer_1" xmlns="http://www.w3.org/2000/svg" width="256" height="256" version="1.1" viewBox="0 0 256 256">
  <!-- Generator: Adobe Illustrator 29.8.4, SVG Export Plug-In . SVG Version: 2.1.1 Build 6)  -->
  <defs>
    <style>
      .st0 {
        fill: #fff;
      }
    </style>
  </defs>
  <path class="st0" d="M55.93,250.9c5.04-6.56,53.51-109.57,57.1-115.78.04-.16-.11-.24-.62-.25-5.29.22-10.74.49-16.06.5-5.72.06-11.47.01-17.19.12-4.99.09-10.05.55-15.05.53-2.03,0-4.94-.35-5.3-2.75-.15-1.12.38-2.4,1.1-3.56,28.52-41.62,56.55-83.76,87.51-123.66,1.26-1.87,3.57-3.84,5.38-4.47.9-.32,1.4-.47,2.18-.39,4.98.63,34.28,4.42,40.43,5.2.52.07,1,.11,1.47.35.93.51,1.73,1.8,1.6,2.42-3.44,6.55-49.77,75.87-52,81.52,5.72-.55,12.61-1.05,18.57-1.02,5.43-.07,10.9-.02,16.25-.34,4.82-.29,9.95-1.03,14.76-1.28,1.44-.03,4.09-.25,4.03,1.73-.07.89-1.03,2.17-1.74,3.02-9.95,12.09-19.68,24.36-29.46,36.59-33.8,43.26-71.36,83.34-106.5,125.46"/>
</svg>