<?xml version="1.0" encoding="UTF-8"?>
<svg id="Layer_1" xmlns="http://www.w3.org/2000/svg" width="256" height="256" version="1.1" viewBox="0 0 256 256">
  <!-- Generator: Adobe Illustrator 29.8.4, SVG Export Plug-In . SVG Version: 2.1.1 Build 6)  -->
  <defs>
    <style>
      .st0 {
        fill: #fff;
      }
    </style>
  </defs>
  <path class="st0" d="M80.37,14.61l-1.28,4.8-2.3,8.59-18.64-4.98-1.8,6.68-14.27-3.82-2.58,9.62,14.29,3.84-1.53,5.68,18.64,4.98-6.54,24.39-18.64-4.98-1.77,6.55-14.27-3.82-2.58,9.64,14.27,3.82-1.55,5.82,18.64,4.98-6.68,24.91-18.62-4.99-1.58,5.94-14.29-3.83-2.58,9.62,14.29,3.83-1.73,6.45,18.62,4.98-6.4,23.87-18.62-4.99-1.53,5.74-14.29-3.83-2.57,9.62,14.27,3.82-1.78,6.68,18.62,4.99-2.38,8.9-1.28,4.82,4.82,1.28,135.96,36.43,4.82,1.28,1.28-4.82,2.38-8.89,18.57,4.97,1.78-6.67,14.42,3.87,2.58-9.62-14.42-3.87,1.53-5.74-18.57-4.97,6.4-23.87,18.57,4.97,1.73-6.45,14.42,3.87,2.57-9.62-14.42-3.87,1.6-5.95-18.57-4.97,6.67-24.89,18.57,4.97,1.55-5.8,14.42,3.87,2.58-9.64-14.42-3.87,1.75-6.57-18.55-4.97,6.54-24.39,18.55,4.97,1.52-5.67,14.44,3.87,2.58-9.64-14.44-3.87,1.8-6.72-18.55-4.97,2.3-8.57,1.3-4.82-4.82-1.3L85.19,15.89l-4.82-1.28h0ZM87.4,26.81l126.35,33.84-45.33,169.07-126.34-33.84S87.4,26.81,87.4,26.81ZM190.15,64.66l-37.23,138.94-93.53-25.07-2.58,9.63,98.36,26.36,4.8,1.28,1.3-4.82,38.51-143.75-9.64-2.58h0Z"/>
</svg>