<?xml version="1.0" encoding="UTF-8"?>
<svg id="Layer_1" xmlns="http://www.w3.org/2000/svg" width="256" height="256" version="1.1" viewBox="0 0 256 256">
  <!-- Generator: Adobe Illustrator 29.8.4, SVG Export Plug-In . SVG Version: 2.1.1 Build 6)  -->
  <defs>
    <style>
      .st0 {
        fill: #fff;
      }
    </style>
  </defs>
  <path class="st0" d="M169.31,12.17C135.51.09,98.13,3.35,66.95,21.12,21.73,46.99-2.29,98.52,6.96,149.79l73.02-13.16c-3.52-19.73,5.43-40.45,23.8-50.93,12.85-7.33,27.68-8.14,40.62-3.49l24.9-70.03ZM196.45,25.98l-41.31,61.66c6.04,4.05,11.25,9.52,15.09,16.25,13.3,23.32,5.14,53.14-18.18,66.45-22.43,12.8-50.88,5.73-64.86-15.59l-62.04,40.72c35.62,54.29,107.29,71.56,163.73,39.45,59.04-33.67,79.6-108.83,45.92-167.87-9.45-16.46-22.58-30.52-38.36-41.06h0ZM145.42,92.59c-11.36-5.61-25.2-5.64-37.06,1.13-15.43,8.8-22.66,26.32-19.02,42.76.86,3.89,2.31,7.63,4.29,11.09,10.83,18.99,34.87,25.57,53.86,14.73,18.99-10.83,25.56-34.87,14.73-53.86-4.06-7.12-9.98-12.5-16.79-15.86h0ZM137.42,109.83c3.48,1.82,6.37,4.6,8.32,8.02,5.61,9.84,2.19,22.37-7.65,27.98-9.84,5.61-22.36,2.18-27.98-7.65-1.02-1.78-1.76-3.71-2.21-5.72-1.95-8.78,2.05-17.8,9.86-22.26,6.07-3.46,13.47-3.6,19.66-.36h0ZM81.42,142.53l-70.78,22.14c1.82,6,4.1,11.86,6.82,17.51l66.73-32.72c-1.1-2.24-2.02-4.55-2.76-6.93h0Z"/>
</svg>