<?xml version="1.0" encoding="UTF-8"?>
<svg id="Layer_1" xmlns="http://www.w3.org/2000/svg" width="256" height="256" version="1.1" viewBox="0 0 256 256">
  <!-- Generator: Adobe Illustrator 29.8.4, SVG Export Plug-In . SVG Version: 2.1.1 Build 6)  -->
  <defs>
    <style>
      .st0 {
        fill: #fff;
      }
    </style>
  </defs>
  <path class="st0" d="M193.99,1.99c-8.93.1-18.23,2.64-26.79,7.27-6.8,3.68-13.09,8.83-18.29,15.2-.65-.67-1.38-1.27-1.98-1.97C121.52-6.67,79.99-.54,61.16,23.21c-3.15,2.6-5.17,6.54-5.17,10.95,0,7.84,6.35,14.19,14.19,14.19s14.2-6.35,14.2-14.19c0-5.35-2.98-10-7.35-12.42,16.97-12.28,44.23-13.53,62.37,7.3,1.18,1.36,2.42,2.65,3.7,3.9-6.02,10.66-9.15,23.78-7.42,38.83-6.54-8.9-16.94-14.94-29.39-14.67-6.56.14-13.68,2.03-21.11,6.17-32.22,17.95-19.89,55.22-81.82,55.32,25.19,15.46,50.76,22.24,73.06,22.32-7.78,38.05,17.76,86.55,78.32,113.1-29.53-51.36,9.73-68.57,23.96-99.26,32.23,5.1,56.15-31.96,71.69,28.54,14.77-82.17-46.37-117.58-84.58-113.07-7.69.91-13.95,4.25-18.64,9.12-4.08-16.26-2.01-29.65,3.5-40.15,14.57,10.63,32.76,15.78,48.18,15.72,9.86-.04,18.78-2.08,25.01-7.34,6.23-5.25,8.56-14.35,5-23.79-4.5-11.93-14.71-19.01-26.13-21.09-2.85-.52-5.78-.75-8.75-.72h0ZM194.1,11.98c2.38-.03,4.67.15,6.85.55,8.71,1.59,15.31,6.14,18.57,14.79,2.53,6.7,1.31,9.78-2.1,12.65-3.41,2.88-10.23,4.95-18.62,4.98-13.24.05-29.81-4.84-42.56-14.12,4.44-5.36,9.86-9.65,15.69-12.8,7.21-3.9,15.04-5.95,22.17-6.05ZM119.05,80.43c3.41.03,7.11.5,11.15,1.48-38.5,7.88-44.97,53.07-88.11,43.63,37.51-5.3,43.97-45.43,76.96-45.11h0ZM137.18,90.83c28.04,58.71-35.84,83.24-5.32,137.41-45.27-50.07,12.36-73.99,5.32-137.41h0ZM150.47,92.92c22.56,24.72,71.34-5.88,87.54,48.01-23.44-38.18-70.1-11.94-87.54-48.01h0Z"/>
</svg>