<?xml version="1.0" encoding="UTF-8"?>
<svg id="Layer_1" xmlns="http://www.w3.org/2000/svg" width="256" height="256" version="1.1" viewBox="0 0 256 256">
  <!-- Generator: Adobe Illustrator 29.8.4, SVG Export Plug-In . SVG Version: 2.1.1 Build 6)  -->
  <defs>
    <style>
      .st0 {
        fill: #fff;
      }
    </style>
  </defs>
  <path class="st0" d="M251.77,177.76h-37.47l-8.06,46.65-26.02-46.65h-98.63v-26.67h101.36v-83.76h68.82v110.43ZM174.41,32.12v110.43h-98.63l-26.03,46.66-8.06-46.66H4.23V32.12h170.19ZM64.37,106.57c0-5.41-6.54-8.12-10.36-4.29s-1.12,10.36,4.29,10.36c3.35,0,6.07-2.72,6.07-6.07h0ZM96.88,106.57c-.04-5.4-6.57-8.07-10.38-4.24-3.8,3.83-1.09,10.35,4.31,10.35,3.37,0,6.09-2.74,6.07-6.11h0ZM129.39,106.57c0-5.41-6.54-8.12-10.36-4.29-3.82,3.82-1.12,10.36,4.29,10.36,3.35,0,6.07-2.72,6.07-6.07h0Z"/>
</svg>