<?xml version="1.0" encoding="UTF-8"?>
<svg id="Layer_1" xmlns="http://www.w3.org/2000/svg" width="256" height="256" version="1.1" viewBox="0 0 256 256">
  <!-- Generator: Adobe Illustrator 29.8.4, SVG Export Plug-In . SVG Version: 2.1.1 Build 6)  -->
  <defs>
    <style>
      .st0 {
        fill: #fff;
      }
    </style>
  </defs>
  <path class="st0" d="M215.28,48.42c-16.33-7.49-33.56-12.84-51.27-15.9-.33-.06-.66.1-.82.39-2.21,3.94-4.67,9.08-6.38,13.11-19.36-2.9-38.62-2.9-57.58,0-1.72-4.13-4.26-9.17-6.48-13.11-.17-.29-.5-.44-.82-.39-17.71,3.05-34.94,8.4-51.27,15.9-.14.06-.26.16-.34.29C7.67,97.49-1.28,145.08,3.11,192.07c.03.23.14.45.33.59,21.54,15.82,42.41,25.43,62.89,31.79.33.1.68-.02.88-.29,4.84-6.62,9.16-13.59,12.87-20.93.2-.39.04-.87-.35-1.07-.03-.01-.06-.03-.09-.04-6.85-2.6-13.37-5.77-19.65-9.36-.38-.23-.51-.72-.29-1.11.05-.09.12-.17.21-.23,1.32-.99,2.64-2.02,3.9-3.06.23-.19.54-.23.81-.11,41.22,18.82,85.84,18.82,126.57,0,.27-.13.59-.09.82.1,1.26,1.04,2.58,2.08,3.91,3.07.36.27.43.77.16,1.13-.06.08-.14.15-.23.21-6.28,3.67-12.85,6.8-19.66,9.35-.41.16-.62.62-.46,1.04.01.03.02.06.04.08,3.78,7.33,8.1,14.3,12.86,20.92.2.28.55.4.88.3,20.58-6.37,41.45-15.97,62.99-31.79.19-.14.31-.35.33-.58,5.25-54.33-8.8-101.52-37.24-143.35-.07-.14-.19-.24-.33-.3h0ZM86.24,163.46c-12.41,0-22.63-11.39-22.63-25.38s10.03-25.38,22.64-25.38,22.83,11.49,22.63,25.38c0,13.99-10.03,25.38-22.63,25.38ZM169.92,163.46c-12.41,0-22.63-11.39-22.63-25.38s10.03-25.38,22.63-25.38,22.83,11.49,22.63,25.38c0,13.99-9.93,25.38-22.63,25.38Z"/>
</svg>