<?xml version="1.0" encoding="UTF-8"?>
<svg id="Layer_1" xmlns="http://www.w3.org/2000/svg" width="256" height="256" version="1.1" viewBox="0 0 256 256">
  <!-- Generator: Adobe Illustrator 29.8.4, SVG Export Plug-In . SVG Version: 2.1.1 Build 6)  -->
  <g id="Group">
    <path d="M178.95,42.59L150.65,2.73H54.4c-9.34,0-16.98,7.69-16.98,17.08v216.38c0,9.4,7.64,17.08,16.98,17.08h147.2c9.34,0,16.98-7.69,16.98-17.08V71.06l-39.63-28.47ZM150.65,207.72h-67.94v-11.39h67.94v11.39ZM173.29,184.94h-90.58v-11.39h90.58v11.39ZM173.29,162.17h-90.58v-11.39h90.58v11.39ZM173.29,139.39h-90.58v-11.39h90.58v11.39Z" display="none" fill="#fff"/>
    <path d="M218.58,71.06h0s-50.95,0-50.95,0c-9.38,0-16.98-7.64-16.98-17.08V2.73H54.4c-9.34,0-16.98,7.69-16.98,17.08v216.38c0,9.4,7.64,17.08,16.98,17.08h147.2c9.34,0,16.98-7.69,16.98-17.08V71.06h0ZM150.65,207.72h-67.94v-11.39h67.94v11.39ZM173.29,184.94h-90.58v-11.39h90.58v11.39ZM173.29,162.17h-90.58v-11.39h90.58v11.39ZM173.29,139.39h-90.58v-11.39h90.58v11.39Z" fill="#fff"/>
    <path id="Path" d="M150.65,2.73v51.25c0,9.44,7.6,17.08,16.98,17.08h50.95L150.65,2.73Z" fill="#fff" opacity=".8"/>
  </g>
</svg>