<?xml version="1.0" encoding="UTF-8"?>
<svg id="Layer_1" xmlns="http://www.w3.org/2000/svg" width="256" height="256" version="1.1" viewBox="0 0 256 256">
  <!-- Generator: Adobe Illustrator 29.8.4, SVG Export Plug-In . SVG Version: 2.1.1 Build 6)  -->
  <path d="M20.42,208.86l11.18,19.31c2.32,4.07,5.66,7.26,9.58,9.58l39.92-69.11H1.26c0,4.5,1.16,9,3.48,13.07l15.68,27.15Z" fill="#fff" opacity=".85"/>
  <path d="M128,87.35L88.08,18.24c-3.92,2.32-7.26,5.52-9.58,9.58L4.74,155.58c-2.28,3.98-3.48,8.48-3.48,13.07h79.85l46.89-81.3Z" fill="#fff" opacity=".7"/>
  <path d="M214.82,237.76c3.92-2.32,7.26-5.52,9.58-9.58l4.65-7.98,22.21-38.47c2.32-4.07,3.48-8.57,3.48-13.07h-79.85l16.99,33.39,22.94,35.71Z" fill="#fff" opacity=".65"/>
  <path d="M128,87.35l39.92-69.11c-3.92-2.32-8.42-3.48-13.07-3.48h-53.72c-4.65,0-9.15,1.31-13.07,3.48l39.92,69.11Z" fill="#fff" opacity=".8"/>
  <path d="M174.89,168.65h-93.79l-39.92,69.11c3.92,2.32,8.42,3.48,13.07,3.48h147.5c4.65,0,9.15-1.31,13.07-3.48l-39.92-69.11Z" fill="#fff" opacity=".75"/>
  <path d="M214.38,91.71l-36.88-63.88c-2.32-4.07-5.66-7.26-9.58-9.58l-39.92,69.11,46.89,81.3h79.7c0-4.5-1.16-9-3.48-13.07l-36.73-63.88Z" fill="#fff" opacity=".95"/>
</svg>