<?xml version="1.0" encoding="UTF-8"?>
<svg id="Layer_1" xmlns="http://www.w3.org/2000/svg" width="256" height="256" version="1.1" viewBox="0 0 256 256">
  <!-- Generator: Adobe Illustrator 29.8.4, SVG Export Plug-In . SVG Version: 2.1.1 Build 6)  -->
  <defs>
    <style>
      .st0 {
        fill: #fff;
      }
    </style>
  </defs>
  <path class="st0" d="M149.58,1.82c-56.32,0-101.95,45.65-101.95,101.95,0,19.26,5.34,37.26,14.62,52.62l-49.43,49.43.17.17c-5.28,5.05-8.52,12.22-8.52,20.32,0,15.65,12.47,27.89,28.1,27.89,7.99,0,15.13-3.2,20.23-8.4l.12.12,51-51c13.74,6.89,29.23,10.79,45.65,10.79,56.33,0,101.94-45.64,101.94-101.95S205.9,1.81,149.58,1.81h0ZM150.2,165.62c-35.2,0-63.72-28.53-63.72-63.72s28.52-63.72,63.72-63.72,63.71,28.53,63.71,63.72c0,35.19-28.51,63.72-63.71,63.72Z"/>
</svg>