<?xml version="1.0" encoding="UTF-8"?>
<svg id="Layer_2" xmlns="http://www.w3.org/2000/svg" width="256" height="256" version="1.1" viewBox="0 0 256 256">
  <!-- Generator: Adobe Illustrator 29.8.4, SVG Export Plug-In . SVG Version: 2.1.1 Build 6)  -->
  <path id="path29" d="M255.21,128.47C255.21,58.21,198.26,1.25,128,1.25S.79,58.21.79,128.47c0,59.66,41.07,109.72,96.48,123.47v-84.59h-26.23v-38.87h26.23v-16.75c0-43.3,19.59-63.37,62.1-63.37,8.06,0,21.97,1.58,27.65,3.16v35.24c-3-.32-8.22-.47-14.7-.47-20.86,0-28.92,7.9-28.92,28.44v13.75h41.55l-7.14,38.87h-34.41v87.41c62.99-7.61,111.8-61.24,111.8-126.28" fill="#fff"/>
</svg>