<?xml version="1.0" encoding="UTF-8"?>
<svg id="Layer_1" xmlns="http://www.w3.org/2000/svg" width="256" height="256" version="1.1" viewBox="0 0 256 256">
  <!-- Generator: Adobe Illustrator 29.8.4, SVG Export Plug-In . SVG Version: 2.1.1 Build 6)  -->
  <defs>
    <style>
      .st0 {
        fill: #fff;
      }
    </style>
  </defs>
  <path class="st0" d="M195.1,51.99c-33.8-7.06-34,17.21-67.05,17.21-28.6,0-29.67-23.99-67.06-17.21C-.23,63.06-9.64,197.76,22.83,204.82c18.03,3.92,27.12-16.99,50.96-32,12.3,9.09,29.63,6.49,38.73-5.81,1.8-2.44,3.19-5.15,4.11-8.04,3.79-.33,7.6-.49,11.41-.49,4.01,0,7.75.17,11.34.48,4.66,14.57,20.25,22.6,34.82,17.93,2.89-.92,5.61-2.32,8.04-4.12,23.87,15.01,32.95,35.94,50.99,32.02,32.47-7.04,22.82-140.07-38.13-152.8h0ZM69.72,120.86h-14.04v-14.28h-14.28v-14.04h14.28v-14.28h14.04v14.27h14.27v14.04h-14.27v14.27h0ZM90.24,168.98c-10.18,0-18.44-8.26-18.44-18.44,0-10.18,8.26-18.44,18.44-18.44,10.18,0,18.44,8.26,18.44,18.44,0,10.18-8.25,18.44-18.43,18.44h0ZM165.75,168.98c-10.18,0-18.43-8.27-18.42-18.46,0-10.18,8.27-18.43,18.46-18.42,10.18,0,18.43,8.27,18.42,18.44,0,10.18-8.26,18.44-18.44,18.44h-.02,0ZM178.47,108.86c-5.14,0-9.3-4.16-9.3-9.3s4.16-9.3,9.3-9.3c5.14,0,9.3,4.16,9.3,9.3h0c0,5.14-4.16,9.31-9.3,9.31h0ZM198.61,129.01c-5.14,0-9.3-4.16-9.3-9.3s4.16-9.3,9.3-9.3c5.14,0,9.3,4.16,9.3,9.3h0c0,5.14-4.16,9.31-9.3,9.31,0,0-.02,0-.03,0h.02ZM198.61,88.71c-5.14,0-9.3-4.16-9.3-9.3s4.16-9.3,9.3-9.3c5.14,0,9.3,4.16,9.3,9.3h0c0,5.14-4.16,9.31-9.3,9.31,0,0-.02,0-.03,0h.02ZM218.76,108.86c-5.14,0-9.3-4.16-9.3-9.3s4.16-9.3,9.3-9.3,9.3,4.16,9.3,9.3h0c0,5.14-4.16,9.31-9.3,9.31,0,0-.02,0-.03,0h.02Z"/>
</svg>