<?xml version="1.0" encoding="UTF-8"?>
<svg id="Layer_1" xmlns="http://www.w3.org/2000/svg" width="256" height="256" version="1.1" viewBox="0 0 256 256">
  <!-- Generator: Adobe Illustrator 29.8.4, SVG Export Plug-In . SVG Version: 2.1.1 Build 6)  -->
  <path d="M232.34,105.59l1.12-.7c9.61-6.06,13.18-18.29,8.48-28.64-3.37-7.42-7.46-14.49-12.21-21.12-6.6-9.21-18.97-12.18-28.99-6.9l-1.14.6c-7.21,3.79-15.8,3.26-22.76-.98-1.27-.78-2.56-1.52-3.87-2.24-7.14-3.9-11.87-11.07-12.19-19.19l-.05-1.3c-.44-11.33-9.21-20.56-20.49-21.66-8.13-.8-16.32-.8-24.45,0-11.29,1.1-20.05,10.33-20.49,21.66l-.05,1.3c-.32,8.12-5.05,15.3-12.19,19.19-1.31.72-2.6,1.46-3.87,2.24-6.95,4.24-15.55,4.77-22.76.98l-1.14-.6c-10.03-5.28-22.39-2.31-28.99,6.9-4.75,6.62-8.84,13.7-12.21,21.12-4.7,10.35-1.13,22.58,8.48,28.64l1.12.7c6.71,4.23,10.77,11.67,10.53,19.6-.06,1.87-.06,3.74,0,5.62.24,7.93-3.83,15.37-10.53,19.6l-1.12.7c-9.61,6.06-13.18,18.29-8.48,28.64,3.37,7.42,7.46,14.49,12.21,21.12,6.6,9.21,18.97,12.18,28.99,6.9l1.14-.6c7.21-3.79,15.8-3.26,22.76.98,1.27.78,2.56,1.52,3.87,2.24,7.14,3.9,11.87,11.07,12.19,19.19l.05,1.3c.44,11.33,9.21,20.56,20.49,21.66,8.13.8,16.32.8,24.45,0,11.29-1.1,20.05-10.33,20.49-21.66l.05-1.3c.32-8.12,5.05-15.3,12.19-19.19,1.31-.72,2.6-1.46,3.87-2.24,6.95-4.24,15.55-4.77,22.76-.98l1.14.6c10.03,5.28,22.39,2.31,28.99-6.9,4.75-6.62,8.84-13.7,12.21-21.12,4.7-10.35,1.13-22.58-8.48-28.64l-1.12-.7c-6.71-4.23-10.77-11.67-10.53-19.6.06-1.87.06-3.74,0-5.62-.24-7.93,3.83-15.37,10.54-19.6h0ZM128,174.93c-25.92,0-46.93-21.01-46.93-46.93s21.01-46.93,46.93-46.93,46.93,21.01,46.93,46.93-21.01,46.93-46.93,46.93Z" fill="#fff"/>
</svg>