<?xml version="1.0" encoding="UTF-8"?>
<svg id="Layer_1" xmlns="http://www.w3.org/2000/svg" width="256" height="256" version="1.1" xmlns:xlink="http://www.w3.org/1999/xlink" viewBox="0 0 256 256">
  <!-- Generator: Adobe Illustrator 29.8.4, SVG Export Plug-In . SVG Version: 2.1.1 Build 6)  -->
  <defs>
    <clipPath id="clippath">
      <rect x="2.09" y="4.66" width="251.82" height="246.68" fill="none"/>
    </clipPath>
  </defs>
  <g clip-path="url(#clippath)">
    <path d="M108.57,182.95c-32.46-3.93-55.33-27.3-55.33-57.55,0-12.3,4.43-25.58,11.8-34.43-3.2-8.12-2.71-25.33.98-32.46,9.84-1.23,23.12,3.93,30.99,11.07,9.34-2.95,19.18-4.43,31.23-4.43s21.89,1.48,30.74,4.18c7.62-6.89,21.15-12.05,30.99-10.82,3.44,6.64,3.93,23.85.74,32.22,7.87,9.34,12.05,21.89,12.05,34.67,0,30.25-22.87,53.12-55.82,57.3,8.36,5.41,14.02,17.21,14.02,30.74v25.58c0,7.38,6.15,11.56,13.53,8.61,44.51-16.97,79.43-61.48,79.43-116.57,0-69.6-56.56-126.4-126.16-126.4-69.6,0-125.67,56.81-125.67,126.4,0,54.59,34.67,99.84,81.4,116.81,6.64,2.46,13.03-1.97,13.03-8.61v-19.67c-3.44,1.48-7.87,2.46-11.8,2.46-16.23,0-25.82-8.85-32.71-25.33-2.71-6.64-5.66-10.57-11.31-11.31-2.95-.25-3.93-1.48-3.93-2.95,0-2.95,4.92-5.16,9.84-5.16,7.13,0,13.28,4.43,19.67,13.53,4.92,7.13,10.08,10.33,16.23,10.33s10.08-2.21,15.74-7.87c4.18-4.18,7.38-7.87,10.33-10.33Z" fill="#fff"/>
  </g>
</svg>