<?xml version="1.0" encoding="UTF-8"?>
<svg id="Layer_1" xmlns="http://www.w3.org/2000/svg" width="256" height="256" version="1.1" viewBox="0 0 256 256">
  <!-- Generator: Adobe Illustrator 29.8.4, SVG Export Plug-In . SVG Version: 2.1.1 Build 6)  -->
  <defs>
    <style>
      .st0, .st1, .st2, .st3 {
        fill: #fff;
      }

      .st1 {
        opacity: .5;
      }

      .st2 {
        opacity: .6;
      }

      .st3 {
        opacity: .8;
      }
    </style>
  </defs>
  <path class="st3" d="M5,203.5c0,9.28,7.52,16.77,16.77,16.77h39.14v-95.05L5,83.3v120.2Z"/>
  <path class="st3" d="M195.08,52.55c-22.36,16.77-44.73,33.55-67.09,50.32L60.9,52.55v72.67s67.1,50.32,67.1,50.32c22.36-16.77,44.73-33.55,67.09-50.32,0-24.22,0-48.45-.01-72.67Z"/>
  <path class="st2" d="M195.09,125.22v95.05h39.14c9.28,0,16.77-7.52,16.77-16.77v-120.2c-18.64,13.97-37.27,27.95-55.91,41.92Z"/>
  <path class="st1" d="M251,83.3v-22.36h0c0-20.74-23.68-32.57-40.26-20.13-5.22,3.91-10.43,7.83-15.65,11.74,0,24.22,0,48.45,0,72.67,18.64-13.97,37.27-27.95,55.91-41.92Z"/>
  <path class="st0" d="M5,83.3v-22.36c0-20.75,23.65-32.57,40.25-20.13l15.65,11.74v72.67S5,83.3,5,83.3Z"/>
</svg>