<?xml version="1.0" encoding="UTF-8"?>
<svg id="Layer_1" xmlns="http://www.w3.org/2000/svg" width="256" height="256" version="1.1" viewBox="0 0 256 256">
  <!-- Generator: Adobe Illustrator 29.8.4, SVG Export Plug-In . SVG Version: 2.1.1 Build 6)  -->
  <path d="M252.32,130.9c0-10.43-.85-18.05-2.68-25.95h-119.15v47.1h69.94c-1.41,11.7-9.02,29.33-25.95,41.17l-.24,1.58,37.67,29.19,2.61.26c23.97-22.14,37.79-54.71,37.79-93.35" fill="#fff" opacity=".7"/>
  <path d="M130.49,254.99c34.26,0,63.03-11.28,84.04-30.74l-40.05-31.02c-10.72,7.47-25.1,12.69-43.99,12.69-33.56,0-62.04-22.14-72.2-52.74l-1.49.13-39.17,30.32-.51,1.42c20.87,41.46,63.74,69.94,113.37,69.94" fill="#fff" opacity=".6"/>
  <path d="M58.29,153.18c-2.68-7.9-4.23-16.36-4.23-25.1s1.55-17.2,4.09-25.1l-.07-1.68-39.66-30.8-1.3.62c-8.6,17.2-13.54,36.52-13.54,56.97s4.94,39.76,13.54,56.97l41.17-31.87" fill="#fff" opacity=".9"/>
  <path d="M130.49,50.24c23.83,0,39.9,10.29,49.07,18.9l35.82-34.97C193.38,13.72,164.75,1.17,130.49,1.17,80.85,1.17,37.99,29.66,17.12,71.11l41.03,31.87c10.29-30.6,38.78-52.74,72.34-52.74" fill="#fff" opacity=".8"/>
</svg>