<?xml version="1.0" encoding="UTF-8"?>
<svg id="Layer_1" xmlns="http://www.w3.org/2000/svg" width="256" height="256" version="1.1" viewBox="0 0 256 256">
  <!-- Generator: Adobe Illustrator 29.8.4, SVG Export Plug-In . SVG Version: 2.1.1 Build 6)  -->
  <path d="M154.96,4.77c-8.47-2.7-17.71-4.24-27.15-4.24-27.15,0-51.6,12.32-67.97,31.77l41.98,35.24L154.96,4.77Z" fill="#fff" opacity=".8"/>
  <path d="M59.84,32.3c-12.9,15.4-20.8,35.43-20.8,56.99,0,16.75,3.27,30.23,8.86,42.36l53.91-64.12s-41.98-35.24-41.98-35.24Z" fill="#fff" opacity=".85"/>
  <path d="M128,55.41c18.87,0,34.08,15.21,34.08,34.08,0,8.28-3.08,15.98-8.09,21.95,0,0,26.76-31.96,52.95-62.96-10.78-20.8-29.46-36.58-51.99-43.71l-53.14,62.77c6.35-7.32,15.6-12.13,26.19-12.13" fill="#fff" opacity=".75"/>
  <path d="M128,123.38c-18.87,0-34.08-15.21-34.08-34.08,0-8.28,2.89-15.98,7.89-21.76l-53.91,64.12c9.24,20.41,24.65,36.97,40.44,57.57l65.66-77.98c-6.35,7.51-15.6,12.13-25.99,12.13" fill="#fff" opacity=".7"/>
  <path d="M152.84,210.8c29.65-46.4,64.12-67.39,64.12-121.31,0-14.83-3.66-28.69-10.01-41.01l-118.61,140.75c5.01,6.55,10.21,14.06,15.21,21.76,18.1,27.92,13.09,44.48,24.65,44.48s6.55-16.75,24.65-44.67" fill="#fff" opacity=".6"/>
</svg>