<?xml version="1.0" encoding="UTF-8"?>
<svg id="Layer_1" xmlns="http://www.w3.org/2000/svg" version="1.1" viewBox="0 0 2406 2406">
  <!-- Generator: Adobe Illustrator 29.8.4, SVG Export Plug-In . SVG Version: 2.1.1 Build 6)  -->
  <defs>
    <style>
      .st0 {
        fill: #000102;
      }

      .st1 {
        fill: #fff;
      }
    </style>
  </defs>
  <path class="st0" d="M1,578.4C1,259.51,259.51,1,578.4,1h1249.1c319,0,577.5,258.5,577.5,577.4v1250.2c0,318.89-258.51,577.4-577.4,577.4H578.4C259.51,2406,1,2147.49,1,1828.6V578.4Z"/>
  <path class="st1" d="M1185.03,1958.81l-601.43-196.55,42.93-209.17S93.34,1710.92,217.02,512.7l520.2,626.68,447.81-85.02,447.81,85.02,520.2-626.68c123.74,1198.22-409.51,1040.4-409.51,1040.4l42.93,209.17-601.43,196.55ZM1185.03,1544.68l-150.67,7.58-82.91,149.41-113.64-140.15-87.54,4.63c14.73,162.46,173.4,230.64,396.88,256.31l52.19-104.38,106.9,92.17c178.87-32.83,300.5-102.69,313.55-244.11l-93.01-4.63-152.78,132.15-53.45-142.25-135.52-6.73ZM1956.91,1109.49c43.77,285.35-151.93,302.61-151.93,302.61l11.36,51.35s312.29,13.47,260.1-682.23l-358.16,454.12,238.63-125.84ZM651.78,1235.33l-357.99-454.12c-52.57,695.7,259.93,682.23,259.93,682.23l11.36-51.35s-195.54-17.26-151.89-302.61l238.59,125.84ZM1266.26,1412.52l132.15,2.1,50.93-55.13,64.39,55.56,131.73,1.68c-38.72-181.4-311.02-290.4-379.21-4.21h0ZM724.59,1416.73l131.73-1.68,64.39-55.56,50.93,55.13,132.15-2.1c-68.18-286.19-340.49-177.19-379.21,4.21h0Z"/>
</svg>