<?xml version="1.0" encoding="UTF-8"?>
<svg id="Layer_1" xmlns="http://www.w3.org/2000/svg" version="1.1" viewBox="0 0 2406 2406">
  <!-- Generator: Adobe Illustrator 29.8.4, SVG Export Plug-In . SVG Version: 2.1.1 Build 6)  -->
  <defs>
    <style>
      .st0 {
        fill: #fff;
      }
    </style>
  </defs>
  <path class="st0" d="M1202.99,2078.18l-727.97-237.9,51.96-253.18S-118.39,1778.13,31.31,327.81l629.65,758.53,542.03-102.91,542.03,102.91,629.65-758.53c149.77,1450.32-495.67,1259.3-495.67,1259.3l51.96,253.18-727.97,237.9h0ZM1202.99,1576.92l-182.37,9.17-100.35,180.85-137.55-169.64-105.96,5.6c17.83,196.64,209.88,279.17,480.38,310.24l63.17-126.34,129.39,111.56c216.5-39.74,363.72-124.3,379.52-295.47l-112.58-5.6-184.92,159.95-64.7-172.18-164.03-8.15h0ZM2137.27,1050.16c52.98,345.39-183.9,366.28-183.9,366.28l13.75,62.15s378,16.3,314.82-825.77l-433.52,549.67,288.84-152.32h0ZM557.55,1202.48L124.24,652.81c-63.63,842.07,314.62,825.77,314.62,825.77l13.75-62.15s-236.68-20.89-183.85-366.28l288.79,152.32h0ZM1301.31,1416.95l159.95,2.54,61.65-66.73,77.94,67.25,159.45,2.03c-46.87-219.57-376.46-351.5-459-5.1h.01ZM645.67,1422.05l159.45-2.03,77.94-67.25,61.65,66.73,159.95-2.54c-82.53-346.4-412.13-214.47-459,5.1h.01Z"/>
</svg>