<?xml version="1.0" encoding="UTF-8"?>
<svg id="Layer_1" xmlns="http://www.w3.org/2000/svg" width="256" height="256" version="1.1" viewBox="0 0 256 256">
  <!-- Generator: Adobe Illustrator 29.8.4, SVG Export Plug-In . SVG Version: 2.1.1 Build 6)  -->
  <defs>
    <style>
      .st0 {
        fill: #fff;
      }
    </style>
  </defs>
  <path class="st0" d="M128,222.68L2.08,181.53l8.99-43.79c7.73-28.87,15.45-57.75,23.18-86.62l93.76-17.8,93.76,17.8c7.73,28.87,15.45,57.75,23.18,86.62l8.99,43.79-125.92,41.15h0ZM128,135.97l-31.55,1.59-17.36,31.28-23.79-29.34-18.33.97c3.08,34.01,36.31,48.29,83.1,53.66l10.93-21.85,22.38,19.3c37.45-6.87,62.92-21.5,65.65-51.11l-19.47-.97-31.99,27.67-11.19-29.78-28.37-1.41h0ZM145.01,108.31l27.67.44,10.66-11.54,13.48,11.63,27.58.35c-8.11-37.98-65.12-60.8-79.39-.88h0ZM31.6,109.19l27.58-.35,13.48-11.63,10.66,11.54,27.67-.44c-14.28-59.92-71.29-37.1-79.39.88h0Z"/>
</svg>