<?xml version="1.0" encoding="UTF-8"?>
<svg id="Layer_1" xmlns="http://www.w3.org/2000/svg" width="256" height="256" version="1.1" viewBox="0 0 256 256">
  <!-- Generator: Adobe Illustrator 29.8.4, SVG Export Plug-In . SVG Version: 2.1.1 Build 6)  -->
  <defs>
    <style>
      .st0 {
        fill: #fff;
      }
    </style>
  </defs>
  <path class="st0" d="M128,132.18l-41.89,2.1-23.05,41.49-31.59-38.92-24.34,1.29c4.1,45.11,48.2,64.05,110.33,71.18l14.51-28.98,29.72,25.6c49.73-9.12,83.54-28.52,87.17-67.79l-25.86-1.29-42.47,36.7-14.86-39.5-37.67-1.87h0ZM150.58,95.48l36.74.58,14.16-15.31,17.9,15.43,36.62.47c-10.76-50.37-86.46-80.64-105.42-1.17h0ZM0,96.65l36.62-.47,17.9-15.43,14.16,15.31,36.74-.58C86.46,16.01,10.76,46.28,0,96.65h0Z"/>
</svg>