<?xml version="1.0" encoding="UTF-8"?>
<svg id="Layer_1" xmlns="http://www.w3.org/2000/svg" width="256" height="256" version="1.1" viewBox="0 0 256 256">
  <!-- Generator: Adobe Illustrator 29.8.4, SVG Export Plug-In . SVG Version: 2.1.1 Build 6)  -->
  <defs>
    <style>
      .st0 {
        fill: #fff;
      }
    </style>
  </defs>
  <path id="mark" class="st0" d="M99.17,162.51l84.26-62.27c4.13-3.05,10.04-1.86,12,2.88,10.36,25.01,5.73,55.06-14.88,75.7-20.61,20.63-49.29,25.16-75.5,14.85l-28.63,13.27c41.07,28.1,90.94,21.15,122.1-10.07,24.72-24.75,32.37-58.48,25.22-88.9l.07.07c-10.38-44.69,2.55-62.55,29.04-99.08.63-.87,1.25-1.73,1.88-2.62l-34.86,34.9v-.11l-120.72,121.41"/>
  <path id="mark1" class="st0" d="M81.79,177.65c-29.48-28.19-24.4-71.82.76-96.98,18.6-18.62,49.07-26.22,75.67-15.05l28.57-13.21c-5.15-3.72-11.74-7.73-19.31-10.55-34.21-14.1-75.17-7.08-102.98,20.74-26.75,26.78-35.17,67.97-20.72,103.11,10.79,26.26-6.9,44.84-24.72,63.59-6.31,6.65-12.65,13.29-17.76,20.33l80.47-71.97"/>
</svg>