<?xml version="1.0" encoding="UTF-8"?>
<svg id="Layer_1" xmlns="http://www.w3.org/2000/svg" width="256" height="256" version="1.1" viewBox="0 0 256 256">
  <!-- Generator: Adobe Illustrator 29.8.4, SVG Export Plug-In . SVG Version: 2.1.1 Build 6)  -->
  <defs>
    <style>
      .st0 {
        fill: #fff;
      }
    </style>
  </defs>
  <path class="st0" d="M128,1.3C58.03,1.3,1.3,58.03,1.3,128s56.73,126.7,126.7,126.7,126.71-56.73,126.71-126.7S197.98,1.3,128,1.3ZM150.24,186.17c-5.13,5.69-8.06,9.07-13.59,14.36-8.37,8.01-17.88,10.14-25.27,2.23-10.62-11.36.52-45.93.79-47.24,2-9.19,5.98-27.55,5.98-27.55,0,0-8.61,5.27-13.71,7.14-3.77,1.38-8.03-.43-9.08-4.08-.98-3.38-.2-5.52,1.87-7.83,5.13-5.68,8.06-9.06,13.59-14.35,8.38-8.01,17.88-10.14,25.27-2.24,10.62,11.36,2.79,30.06.03,43.31-.27,1.31-6.8,31.49-6.8,31.49,0,0,8.61-5.27,13.71-7.14,3.78-1.37,8.04.44,9.09,4.08.98,3.38.19,5.52-1.88,7.83h0ZM136.5,88.47c-11.82,1.04-22.24-7.7-23.28-19.53-1.03-11.82,7.71-22.24,19.53-23.27,11.81-1.04,22.24,7.71,23.27,19.53,1.04,11.82-7.71,22.24-19.53,23.27h0Z"/>
</svg>