<?xml version="1.0" encoding="UTF-8"?>
<svg id="Layer_1" xmlns="http://www.w3.org/2000/svg" width="2406" height="2406" version="1.1" viewBox="0 0 2406 2406">
  <!-- Generator: Adobe Illustrator 29.8.4, SVG Export Plug-In . SVG Version: 2.1.1 Build 6)  -->
  <defs>
    <style>
      .st0 {
        fill: #fff;
      }
    </style>
  </defs>
  <path id="path13" class="st0" d="M720.24,1111.33c-22.64-29.66-65.04-35.35-94.7-12.71-8.72,6.66-15.68,15.33-20.3,25.29L21.98,2290.45c-17.26,34.41-3.37,76.31,31.06,93.58,9.66,4.85,20.31,7.39,31.13,7.4h812.19c26.87.51,51.46-15.03,62.54-39.54,175.02-359.37,69-911.73-238.62-1240.56h-.03Z"/>
  <path id="path15" class="st0" d="M1148.25,51.9c-295.81,455.07-329.95,1032.33-89.85,1519.08l393.51,780.92c11.7,23.67,35.77,38.68,62.17,38.81h812.19c39.57-3.26,68.98-37.99,65.73-77.54-.64-7.84-2.58-15.51-5.71-22.73L1266.85,51.9c-15.71-32.75-54.99-46.57-87.74-30.86-13.49,6.48-24.38,17.36-30.86,30.86Z"/>
</svg>