<?xml version="1.0" encoding="UTF-8"?>
<svg id="Layer_1" xmlns="http://www.w3.org/2000/svg" width="256" height="256" version="1.1" viewBox="0 0 256 256">
  <!-- Generator: Adobe Illustrator 29.8.4, SVG Export Plug-In . SVG Version: 2.1.1 Build 6)  -->
  <path d="M158.75,84.54c0-4.1-3.69-7.79-7.79-7.79h-45.92c-4.1,0-7.79,3.69-7.79,7.79v138.17c0,4.1,3.69,7.79,7.79,7.79h45.92c4.1,0,7.79-3.69,7.79-7.79V84.54ZM66.5,84.54c0-4.1-3.69-7.79-7.79-7.79H12.79c-4.1,0-7.79,3.69-7.79,7.79v158.67c0,4.1,3.69,7.79,7.79,7.79h45.92c4.1,0,7.79-3.69,7.79-7.79V84.54ZM251,84.54c0-4.1-3.69-7.79-7.79-7.79h-45.92c-4.1,0-7.79,3.69-7.79,7.79v117.67c0,4.1,3.69,7.79,7.79,7.79h45.92c4.1,0,7.79-3.69,7.79-7.79v-117.67ZM251,12.79c0-4.1-3.69-7.79-7.79-7.79H12.79c-4.1,0-7.79,3.69-7.79,7.79v25.42c0,4.1,3.69,7.79,7.79,7.79h230.42c4.1,0,7.79-3.69,7.79-7.79V12.79h0Z" fill="#fff"/>
</svg>