<?xml version="1.0" encoding="UTF-8"?>
<svg id="Layer_1" xmlns="http://www.w3.org/2000/svg" width="256" height="256" version="1.1" viewBox="0 0 256 256">
  <!-- Generator: Adobe Illustrator 29.8.4, SVG Export Plug-In . SVG Version: 2.1.1 Build 6)  -->
  <defs>
    <style>
      .st0 {
        fill: #fff;
      }
    </style>
  </defs>
  <path class="st0" d="M182.76,2.32l-92.57,135.08.81.56,16.92,11.81L200.58,14.55l-17.81-12.22h0ZM230.43,35.26c-10.67,15.57-23.35,12.23-36.12,4.71l-25.77,38.57c11.26,8.76,19.3,18.87,9.84,32.67l22.74,15.6,15.3-22.31-7.79-4.85c-1.73,1.01-3.7,1.54-5.71,1.54-6.27,0-11.36-5.09-11.36-11.36s5.09-11.35,11.36-11.35,11.35,5.08,11.35,11.35c0,.1-.01.21-.02.31l8.42,5.24,9.49-13.88-19.95-12.44,5.84-9.38,7.91,4.93,5.34-8.57,12.83,7.99,9.05-13.2-22.76-15.58h0ZM68.82,135.83c-.16,0-.33.01-.5.03-.45.06-.9.16-1.34.3-1.86.59-3.92,2.15-5.36,4.2-1.44,2.05-2.2,4.49-2.12,6.42.08,1.92.67,3.35,2.78,4.83l40.54,28.3c1.74,1.21,3.03,1.24,4.83.61,1.8-.63,3.88-2.25,5.36-4.35,1.48-2.1,2.3-4.58,2.28-6.45-.02-1.87-.47-3.06-2.31-4.35l-40.55-28.3c-1.35-.94-2.46-1.28-3.6-1.24h0ZM38.69,159.2c-12.89.22-24.08,5.04-30.51,14.42-8.97,13.09-6.28,31.63,5.09,47.78-1,2.56-1.52,5.29-1.52,8.04,0,12.3,10.09,22.39,22.39,22.39,4.41,0,8.73-1.31,12.39-3.77,22.87,9.79,46.61,6.73,57.31-8.88,9.89-14.44,5.76-35.41-8.67-52.56l-33.39-23.3c-7.42-2.7-14.86-4.08-21.83-4.12-.42,0-.84,0-1.26,0h0ZM34.14,216.96c6.96,0,12.49,5.53,12.49,12.49s-5.53,12.5-12.49,12.5-12.5-5.55-12.5-12.5,5.55-12.49,12.5-12.49h0Z"/>
</svg>