<?xml version="1.0" encoding="UTF-8"?>
<svg id="Layer_1" xmlns="http://www.w3.org/2000/svg" width="256" height="256" version="1.1" viewBox="0 0 256 256">
  <!-- Generator: Adobe Illustrator 29.8.4, SVG Export Plug-In . SVG Version: 2.1.1 Build 6)  -->
  <defs>
    <style>
      .st0 {
        fill: #fff;
      }
    </style>
  </defs>
  <path class="st0" d="M252.83,112.86h-126.53c-8.05-33.52-41.76-54.17-75.28-46.12C22.58,73.57,2.7,99.23,3.18,128.46c-.07,34.47,27.82,62.47,62.29,62.54,28.55.06,53.5-19.27,60.59-46.93h48.76v31.21h23.4v-31.21h23.41v46.81h31.21v-78.02ZM96.8,126.03c0,.41,0,.81,0,1.22,0,.41,0,.81,0,1.22,0,17.24-13.98,31.2-31.21,31.2-17.23,0-31.2-13.97-31.2-31.2-.63-17.24,12.84-31.72,30.08-32.34,17.17-.62,31.62,12.74,32.34,29.91h0Z"/>
</svg>