<?xml version="1.0" encoding="UTF-8"?>
<svg id="Layer_1" xmlns="http://www.w3.org/2000/svg" width="256" height="256" version="1.1" viewBox="0 0 256 256">
  <!-- Generator: Adobe Illustrator 29.8.4, SVG Export Plug-In . SVG Version: 2.1.1 Build 6)  -->
  <path d="M128,0C55.89,0,0,52.82,0,124.16c0,37.32,15.29,69.56,40.2,91.84,2.09,1.87,3.35,4.49,3.44,7.29l.7,22.77c.22,7.26,7.72,11.99,14.37,9.05l25.41-11.22c2.15-.95,4.57-1.13,6.84-.5,11.68,3.21,24.1,4.92,37.05,4.92,72.11,0,128-52.82,128-124.16S200.11,0,128,0ZM207.32,91.03l-44.56,68.87h0c-2.26,3.5-6.93,4.49-10.42,2.23l-41.28-26.71c-1.6-1.03-3.67-1.01-5.23.08l-46.53,32.09c-6.79,4.68-15.09-3.38-10.61-10.3l44.57-68.88c2.26-3.5,6.93-4.49,10.42-2.23l41.29,26.71c1.6,1.03,3.66,1.01,5.23-.08l46.52-32.09c6.79-4.68,15.09,3.38,10.61,10.3Z" fill="#fff"/>
</svg>