<?xml version="1.0" encoding="UTF-8"?>
<svg id="Layer_1" xmlns="http://www.w3.org/2000/svg" width="256" height="256" version="1.1" viewBox="0 0 256 256">
  <!-- Generator: Adobe Illustrator 29.8.4, SVG Export Plug-In . SVG Version: 2.1.1 Build 6)  -->
  <defs>
    <style>
      .st0 {
        fill: #fff;
        fill-rule: evenodd;
      }
    </style>
  </defs>
  <path class="st0" d="M47.63,45.89c7.86,6.38,10.8,5.9,25.55,4.91l139.08-8.35c2.95,0,.5-2.94-.48-3.43l-23.09-16.7c-4.42-3.44-10.32-7.37-21.62-6.39L32.4,25.75c-4.91.48-5.89,2.94-3.93,4.91l19.17,15.23h0ZM55.98,78.3v146.33c0,7.86,3.93,10.81,12.78,10.32l152.84-8.84c8.85-.48,9.84-5.9,9.84-12.29V68.47c0-6.38-2.45-9.82-7.87-9.33l-159.72,9.33c-5.9.49-7.87,3.44-7.87,9.83h0ZM206.86,86.15c.98,4.42,0,8.84-4.43,9.34l-7.36,1.47v108.03c-6.4,3.44-12.29,5.4-17.2,5.4-7.87,0-9.84-2.45-15.73-9.82l-48.17-75.62v73.17l15.25,3.44s0,8.84-12.3,8.84l-33.9,1.96c-.98-1.96,0-6.87,3.44-7.86l8.85-2.45v-96.73l-12.29-.98c-.99-4.42,1.47-10.8,8.35-11.3l36.37-2.45,50.13,76.61v-67.77l-12.78-1.47c-.98-5.41,2.95-9.33,7.86-9.82l33.93-1.98h0ZM21.08,12.5L161.15,2.18c17.2-1.47,21.63-.48,32.44,7.36l44.72,31.43c7.38,5.41,9.84,6.88,9.84,12.76v172.36c0,10.8-3.93,17.19-17.69,18.17l-162.67,9.83c-10.33.49-15.25-.98-20.65-7.86l-32.93-42.72c-5.9-7.86-8.35-13.75-8.35-20.63V29.67c0-8.83,3.93-16.2,15.23-17.18h0Z"/>
</svg>