<?xml version="1.0" encoding="UTF-8"?>
<svg id="Layer_1" xmlns="http://www.w3.org/2000/svg" width="256" height="256" version="1.1" viewBox="0 0 256 256">
  <!-- Generator: Adobe Illustrator 29.8.4, SVG Export Plug-In . SVG Version: 2.1.1 Build 6)  -->
  <defs>
    <style>
      .st0 {
        fill: #fff;
      }
    </style>
  </defs>
  <path class="st0" d="M249.82,6.18c-.73-.73-2.55-1.48-6.64-.72-4.09.76-9.9,3.07-16.89,7.26l-.06.04-.07.04c-33.44,18.62-51.65,51.9-80.74,80.99-1.82,1.82-4.2,2.42-6.3,2.51-2.1.09-4.15-.27-6.31-.85-4.33-1.16-9.1-3.3-14.05-5.96-8.33-4.48-16.84-10.37-23.18-15.94l-5.28,5.28,86.87,86.87,5.28-5.28c-5.57-6.34-11.46-14.85-15.94-23.18-2.66-4.95-4.8-9.72-5.96-14.05-.58-2.16-.94-4.22-.85-6.31s.68-4.47,2.51-6.3c27.7-27.7,59.7-42.3,80.98-80.73l.04-.07.04-.07c4.19-6.99,6.51-12.8,7.26-16.89.76-4.09,0-5.91-.72-6.64h0ZM235.58,20.42c3.23,3.23.61,11.07-5.84,17.52,0,0,0,0,0,0-6.45,6.45-14.3,9.07-17.52,5.84,0,0,0,0,0,0-3.23-3.23-.61-11.07,5.84-17.52,6.45-6.45,14.3-9.07,17.52-5.84,0,0,0,0,0,0h0ZM83.73,85.39l-5.11,5.11,86.88,86.87,5.11-5.11-86.88-86.87ZM72.05,97.07l-5.11,5.11,86.87,86.87,5.11-5.11-86.87-86.87ZM60.32,108.7c-11.28,11.2-30.34,29.14-55.18,36.81l9.78,9.78c5.81.14,11.22-.05,16.25-.54-2.37,2.7-5.89,5.18-9.42,7.37l13.32,13.32c4.73-2.36,8.8-5.58,13.16-8.43-2.68,4.51-5.27,9.12-8.43,13.15l20.98,20.98c1.24-3.45,3.26-6.68,5.58-9.84-.82,5.07-.48,10.38.37,15.79l13.25,13.25c5.33-1.86,10.46-3.93,14.84-6.74-1.22,5.82-4.28,10.02-7.56,14.02l10.26,10.26c1.43-1.84,3.33-3.28,7.27-4.71-1.89,3.44-2.05,6.83-1.69,10.29l7.4,7.4c7.67-24.84,25.6-43.9,36.81-55.18L60.32,108.7Z"/>
</svg>