<?xml version="1.0" encoding="UTF-8"?>
<svg id="Layer_1" xmlns="http://www.w3.org/2000/svg" width="256" height="256" version="1.1" viewBox="0 0 256 256">
  <!-- Generator: Adobe Illustrator 29.8.4, SVG Export Plug-In . SVG Version: 2.1.1 Build 6)  -->
  <defs>
    <style>
      .st0 {
        fill: #fff;
      }
    </style>
  </defs>
  <path class="st0" d="M128,216.25s-11.59-1.14-20.66-7.43c-9.07-6.29-69.55-49.54-69.55-49.54v85.6s.5,9.96,11.44,9.96h157.48c10.95,0,11.44-9.96,11.44-9.96v-85.65s-60.49,43.25-69.55,49.59c-9.02,6.24-20.61,7.43-20.61,7.43h0,0ZM128,1.16S53.25-1.27,37.8,81.71v56.52s.64,6.04,17.64,18.33c16.99,12.29,61.03,46.86,72.57,46.86s55.53-34.58,72.57-46.91c16.99-12.29,17.64-18.38,17.64-18.38v-56.42C202.76-1.27,128.01,1.21,128.01,1.16h0ZM179.22,112.52h-102.39v-30.81c10.4-41.22,51.17-41.81,51.17-41.81,0,0,40.82.59,51.22,41.81v30.81h0Z"/>
</svg>