<?xml version="1.0" encoding="UTF-8"?>
<svg id="Layer_1" xmlns="http://www.w3.org/2000/svg" width="256" height="256" version="1.1" viewBox="0 0 256 256">
  <!-- Generator: Adobe Illustrator 29.8.4, SVG Export Plug-In . SVG Version: 2.1.1 Build 6)  -->
  <defs>
    <style>
      .st0 {
        fill: #fff;
        fill-rule: evenodd;
      }
    </style>
  </defs>
  <g id="Icons">
    <g id="Color-">
      <path id="Reddit" class="st0" d="M165.68,161.39c-9.47,0-17.43-7.61-17.43-16.99s7.96-17.24,17.43-17.24,17.15,7.86,17.15,17.24-7.68,16.99-17.15,16.99M169.71,194.37c-8.82,8.73-22.42,12.98-41.58,12.98-.04,0-.09,0-.13,0-.04,0-.09,0-.13,0-19.16,0-32.76-4.25-41.57-12.98-2.71-2.68-2.71-7.02,0-9.7,2.7-2.68,7.08-2.68,9.79,0,6.08,6.03,16.48,8.96,31.78,8.96.05,0,.09,0,.13,0,.05,0,.09,0,.13,0,15.3,0,25.71-2.93,31.8-8.96,2.71-2.68,7.09-2.68,9.79,0,2.7,2.68,2.7,7.02,0,9.7M73.16,144.4c0-9.38,7.94-17.24,17.4-17.24s17.15,7.87,17.15,17.24-7.68,16.99-17.15,16.99-17.4-7.61-17.4-16.99M212.43,36.15c6.41,0,11.63,5.17,11.63,11.52s-5.22,11.53-11.63,11.53-11.63-5.17-11.63-11.53,5.22-11.52,11.63-11.52M254.68,125.73c0-16.64-13.66-30.17-30.45-30.17-7.27,0-13.94,2.54-19.18,6.77-18.57-11.56-42.13-18.53-67.39-20.01l13.17-41.27,36.21,8.45c.95,13.06,11.97,23.4,25.39,23.4s25.46-11.32,25.46-25.24-11.43-25.23-25.46-25.23c-9.82,0-18.35,5.54-22.6,13.63l-42.07-9.81c-3.52-.82-7.09,1.18-8.18,4.61l-16.36,51.23c-27.21.66-52.79,7.65-72.72,19.89-5.17-4.01-11.67-6.41-18.73-6.41-16.79,0-30.45,13.53-30.45,30.17,0,10.28,5.23,19.38,13.18,24.82-.33,2.39-.51,4.8-.51,7.24,0,20.8,12.2,40.14,34.35,54.47,21.23,13.74,49.34,21.3,79.14,21.3s57.9-7.56,79.14-21.3c22.15-14.33,34.35-33.67,34.35-54.47,0-2.22-.15-4.43-.43-6.61,8.49-5.36,14.13-14.76,14.13-25.45"/>
    </g>
  </g>
</svg>