<?xml version="1.0" encoding="UTF-8"?>
<svg xmlns="http://www.w3.org/2000/svg" width="460" height="460" version="1.1" viewBox="0 0 460 460">
  <!-- Generator: Adobe Illustrator 29.8.4, SVG Export Plug-In . SVG Version: 2.1.1 Build 6)  -->
  <defs>
    <style>
      .st0 {
        fill: #fff;
        fill-rule: evenodd;
      }
    </style>
  </defs>
  <g id="Layer_1" focusable="false">
    <path class="st0" d="M289.13,9.32C167.25-23.34,41.97,48.99,9.32,170.87c-32.66,121.88,39.67,247.16,161.55,279.82,121.88,32.66,247.16-39.67,279.82-161.55,32.66-121.88-39.67-247.16-161.55-279.82h0ZM192.49,412.72l.31.79c1.31,3.55,3.97,6.44,7.4,8.02,3.43,1.58,7.36,1.74,10.91.43l53.89-19.81c3.55-1.31,7.47-1.15,10.91.43,3.43,1.59,6.1,4.47,7.4,8.02l.21.62c2.35,6.52-.34,13.79-6.36,17.22-103.9,24.71-209.42-34.24-242.86-135.67C.87,191.35,50.65,81.21,148.88,39.29c5.73.56,10.64,4.36,12.62,9.77,2.87,7.78,11.5,11.76,19.28,8.9l17.53-6.47c3.55-1.31,7.47-1.15,10.91.43,3.43,1.59,6.1,4.47,7.4,8.02l.21.62c1.31,3.55,1.15,7.47-.43,10.91-1.58,3.43-4.47,6.1-8.02,7.4l-121.99,44.99c-3.55,1.31-6.44,3.97-8.02,7.4-1.58,3.43-1.74,7.36-.43,10.91l.21.62c1.31,3.55,3.97,6.44,7.4,8.02,3.43,1.59,7.36,1.74,10.91.43l89.23-32.86c3.55-1.31,7.47-1.15,10.91.43,3.43,1.59,6.1,4.47,7.4,8.02l.21.62c1.31,3.55,1.15,7.47-.43,10.91-1.58,3.43-4.47,6.1-8.02,7.4l-142.45,52.47c-3.55,1.3-6.44,3.97-8.02,7.4-1.58,3.43-1.74,7.36-.43,10.91l.21.62c1.31,3.55,3.97,6.44,7.4,8.02,3.43,1.59,7.36,1.74,10.91.43l175.23-64.31c3.55-1.31,7.47-1.15,10.91.43,3.43,1.59,6.1,4.47,7.4,8.02l.52,1.42c1.31,3.55,1.15,7.47-.43,10.91-1.59,3.43-4.47,6.1-8.02,7.4l-125.94,46.3c-3.55,1.31-6.44,3.97-8.02,7.4-1.58,3.43-1.74,7.36-.43,10.91l.21.62c1.3,3.55,3.97,6.44,7.4,8.02,3.43,1.59,7.36,1.74,10.91.43l57.73-21.24c3.55-1.31,7.47-1.15,10.91.43,3.43,1.58,6.1,4.47,7.4,8.02l.21.62c1.31,3.55,1.15,7.47-.43,10.91-1.58,3.44-4.47,6.1-8.02,7.4l-99.28,36.5c-3.55,1.3-6.44,3.97-8.02,7.4s-1.74,7.36-.43,10.91l.21.62c1.3,3.55,3.97,6.44,7.4,8.02,3.43,1.59,7.36,1.74,10.91.43l134.53-49.43c3.55-1.31,7.47-1.15,10.91.43,3.44,1.58,6.1,4.47,7.4,8.02l.21.62c1.31,3.55,1.15,7.47-.43,10.91s-4.47,6.1-8.02,7.4l-83.53,30.69c-3.55,1.3-6.44,3.97-8.02,7.4-1.58,3.43-1.74,7.36-.43,10.91l.21.62c1.31,3.55,3.97,6.44,7.4,8.02,3.43,1.58,7.36,1.74,10.91.43l104.92-38.49c3.55-1.31,7.47-1.15,10.91.43s6.1,4.47,7.4,8.02c2.71,7.33-1,15.48-8.3,18.26l-96.85,36.97c-3.54,1.32-6.42,3.98-8,7.42-1.58,3.44-1.72,7.36-.41,10.9l-.02-.1h0Z"/>
  </g>
</svg>