<?xml version="1.0" encoding="UTF-8"?>
<svg id="Layer_1" xmlns="http://www.w3.org/2000/svg" width="256" height="256" version="1.1" viewBox="0 0 256 256">
  <!-- Generator: Adobe Illustrator 29.8.4, SVG Export Plug-In . SVG Version: 2.1.1 Build 6)  -->
  <defs>
    <style>
      .st0 {
        fill: #fff;
      }
    </style>
  </defs>
  <path class="st0" d="M252.28,16.88c-.04-1.69-.38-3.28-.97-4.75l.03.09v-.03l-.02-.03c-.06-.15-.17-.25-.23-.39-.66-1.41-1.47-2.6-2.46-3.65h.01c-.13-.13-.17-.31-.3-.45-.22-.22-.52-.3-.76-.5h-.01c-.85-.76-1.81-1.42-2.83-1.94l-.08-.03c-.3-.16-.54-.4-.84-.52-.2-.08-.4-.09-.6-.16-1.41-.56-3.02-.89-4.73-.92h-78.93c-7.7,0-13.95,6.25-13.95,13.95s6.25,13.95,13.95,13.95h45.24L31.48,204.8v-45.24c0-7.7-6.25-13.95-13.95-13.95s-13.95,6.25-13.95,13.95h0v78.92c0,1.91.39,3.74,1.08,5.39l-.03-.09v.03l.03.06.12.2c.68,1.47,1.54,2.73,2.58,3.83h0c.12.12.17.31.3.45.22.22.52.3.77.5.85.75,1.8,1.39,2.83,1.92l.08.03c.3.15.52.4.84.52.2.08.41.09.62.17,1.39.56,3.02.89,4.71.92h78.92c7.7,0,13.95-6.25,13.95-13.95s-6.25-13.95-13.95-13.95h-45.23L224.52,51.2v45.23c0,7.7,6.25,13.95,13.95,13.95s13.95-6.25,13.95-13.95h0V17.52c0-.23-.12-.42-.13-.66v.02Z"/>
</svg>