<?xml version="1.0" encoding="UTF-8"?>
<svg id="Layer_1" xmlns="http://www.w3.org/2000/svg" width="256" height="256" version="1.1" viewBox="0 0 256 256">
  <!-- Generator: Adobe Illustrator 29.8.4, SVG Export Plug-In . SVG Version: 2.1.1 Build 6)  -->
  <defs>
    <style>
      .st0 {
        fill: #fff;
      }
    </style>
  </defs>
  <path class="st0" d="M69.01,161.88h159.95l20.04-106.98-188.47.14-6.98-27.33H7v18.23h32.4l29.61,115.96h0ZM227.04,73.14l-13.21,70.51H83.17l-17.98-70.4,161.85-.12Z"/>
  <path class="st0" d="M123.11,199.15c0-3.86-.76-7.55-2.13-10.92h55.77c-1.37,3.38-2.13,7.06-2.13,10.92,0,16.07,13.08,29.15,29.15,29.15s29.15-13.08,29.15-29.15-13.08-29.15-29.15-29.15h-109.82c-16.07,0-29.15,13.08-29.15,29.15s13.08,29.15,29.15,29.15,29.15-13.08,29.15-29.15ZM203.78,188.23c6.02,0,10.92,4.9,10.92,10.92s-4.9,10.92-10.92,10.92-10.92-4.9-10.92-10.92,4.9-10.92,10.92-10.92ZM93.96,188.23c6.02,0,10.92,4.9,10.92,10.92s-4.9,10.92-10.92,10.92-10.92-4.9-10.92-10.92,4.9-10.92,10.92-10.92Z"/>
</svg>