<?xml version="1.0" encoding="UTF-8"?>
<svg id="Layer_1" xmlns="http://www.w3.org/2000/svg" width="2406" height="2406" version="1.1" viewBox="0 0 2406 2406">
  <!-- Generator: Adobe Illustrator 29.8.4, SVG Export Plug-In . SVG Version: 2.1.1 Build 6)  -->
  <defs>
    <style>
      .st0 {
        fill: #fff;
      }
    </style>
  </defs>
  <path class="st0" d="M647.37,867.05c-125.36,0-226.36-36.82-302.96-110.49-76.63-73.66-114.91-172.75-114.91-297.31,0-135.93,40.75-243.77,122.3-323.52,81.52-79.74,190.3-119.61,326.32-119.61s232.08,36.08,305.42,108.22c73.32,72.16,110,173.54,110,304.15s-40.55,241.13-121.67,320.09c-81.12,78.99-189.27,118.47-324.48,118.47h-.01ZM1934.2,38.9L786.25,1672.42h-299.9L1631.84,38.9h302.35ZM670.73,216.61c-119.64,0-179.45,77.08-179.45,231.25,0,145.81,56.94,218.71,170.84,218.71s174.52-75.93,174.52-227.82-55.31-222.14-165.93-222.14h.01ZM1744.92,1695.21c-125.36,0-226.36-36.82-302.96-110.49-76.63-73.66-114.91-172.75-114.91-297.31,0-135.93,40.75-243.77,122.3-323.52,81.52-79.74,190.3-119.61,326.32-119.61s233.09,35.71,306.03,107.08c72.91,71.39,109.39,172.4,109.39,303s-40.55,241.5-121.67,321.24c-81.12,79.74-189.27,119.61-324.48,119.61h-.01ZM1764.59,1044.76c-118.82,0-178.21,77.08-178.21,231.25,0,145.81,57.76,218.71,173.3,218.71s174.52-75.93,174.52-227.82c0-70.63-15.58-125.31-46.7-164.03-31.15-38.73-72.12-58.09-122.91-58.09h0Z"/>
  <path class="st0" d="M121.43,2055.77v-291.62c319.55,232.39,678.02,348.58,1075.43,348.58s756.68-116.19,1087.71-348.58v293.89c-315.46,246.05-671.9,332.83-1081.57,332.83s-786.6-87.55-1081.57-335.1h-.01Z"/>
</svg>