<?xml version="1.0" encoding="UTF-8"?>
<svg id="Layer_1" xmlns="http://www.w3.org/2000/svg" width="256" height="256" version="1.1" viewBox="0 0 256 256">
  <!-- Generator: Adobe Illustrator 29.8.4, SVG Export Plug-In . SVG Version: 2.1.1 Build 6)  -->
  <path d="M98.76,142.12c-12.78,14.72-12.16,37.57,1.36,51.66,7.54,7.91,17.66,11.84,27.72,11.84s19.65-3.77,27.14-11.26c3.41-3.41,6.08-7.34,7.91-11.47h0l49.51-95.99c1.31-2.72-1.52-5.55-4.24-4.24l-95.99,49.51h0c-4.98,2.2-9.54,5.55-13.41,9.95ZM116.26,155.64c3.2-3.2,7.39-4.82,11.58-4.82s8.38,1.62,11.63,4.82c6.39,6.39,6.39,16.82,0,23.21-3.2,3.2-7.39,4.82-11.63,4.82s-8.38-1.62-11.58-4.82c-6.44-6.44-6.44-16.82,0-23.21ZM230.64,179.38c0-18.13-4.77-35.94-13.83-51.5-3.51-6.08-1.47-13.83,4.61-17.34,6.08-3.51,13.83-1.47,17.34,4.61,11.26,19.44,17.24,41.65,17.24,64.24,0,7.02-5.66,12.68-12.68,12.68s-12.68-5.66-12.68-12.68ZM0,179.38C0,108.8,57.42,51.38,128,51.38c16.4,0,32.38,3.04,47.47,9.12,6.5,2.62,9.64,9.95,7.07,16.45-2.62,6.5-9.95,9.64-16.45,7.07-12.1-4.82-24.94-7.28-38.09-7.28-56.59,0-102.64,46.05-102.64,102.64,0,7.02-5.66,12.68-12.68,12.68s-12.68-5.66-12.68-12.68Z" fill="#fff"/>
</svg>