<?xml version="1.0" encoding="UTF-8"?>
<svg id="Layer_1" xmlns="http://www.w3.org/2000/svg" width="2406" height="2406" version="1.1" viewBox="0 0 2406 2406">
  <!-- Generator: Adobe Illustrator 29.8.4, SVG Export Plug-In . SVG Version: 2.1.1 Build 6)  -->
  <defs>
    <style>
      .st0, .st1 {
        fill: #fff;
      }

      .st1 {
        opacity: .7;
      }
    </style>
  </defs>
  <g id="layer1">
    <polygon id="rect5331-6-3-1-7" class="st1" points="2398.62 1341.76 1207.48 688.51 1207.48 1069.12 2398.62 1722.38 2398.62 1341.76"/>
    <polygon id="rect5331-6-3-1" class="st1" points="2398.62 681.16 1207.48 27.9 1207.48 408.52 2398.62 1061.77 2398.62 681.16"/>
    <polygon id="rect5331-6-4" class="st0" points="1203.11 1336.88 2398.62 681.16 2398.62 1064.22 1203.11 1719.96 1203.11 1336.88"/>
    <polygon id="rect5331-6-3-1-3" class="st1" points="1203.11 1336.88 7.49 681.16 7.49 1064.22 1203.11 1719.96 1203.11 1336.88"/>
    <polygon id="rect5331-6-3" class="st0" points="7.38 681.16 1207.48 25.44 1207.48 408.52 7.38 1064.24 7.38 681.16"/>
    <polygon id="rect5331-6-4-9" class="st0" points="1203.11 1997.48 2398.62 1341.76 2398.62 1724.83 1203.11 2380.55 1203.11 1997.48"/>
    <polygon id="rect5331-6-3-1-3-1" class="st1" points="1203.11 1997.48 7.49 1341.76 7.49 1724.83 1203.11 2380.56 1203.11 1997.48"/>
    <polygon id="rect5331-6-3-2" class="st0" points="7.38 1341.76 1207.48 686.04 1207.48 1069.11 7.38 1724.83 7.38 1341.76"/>
  </g>
</svg>