<?xml version="1.0" encoding="UTF-8"?>
<svg id="Layer_1" xmlns="http://www.w3.org/2000/svg" width="256" height="256" version="1.1" viewBox="0 0 256 256">
  <!-- Generator: Adobe Illustrator 29.8.4, SVG Export Plug-In . SVG Version: 2.1.1 Build 6)  -->
  <defs>
    <style>
      .st0, .st1 {
        fill: #fff;
      }

      .st1 {
        opacity: .7;
      }
    </style>
  </defs>
  <path class="st1" d="M22.56,250.9v-60.17c.08-3.15,2.21-5.83,5.22-6.92l.06-.02,85.08-24.98-85.09-25.03c-2.07-.73-3.69-2.17-4.54-3.99l-.02-.05c-.43-.68-.7-1.48-.7-2.35v-.15h0s0-60.69,0-60.69c0-.88.26-1.7.73-2.4v.02c.87-1.87,2.49-3.31,4.5-4.01l.06-.02L228.16,1.27c.41-.15.89-.23,1.38-.23,2.17,0,3.92,1.63,3.92,3.63,0,.16-.01.31-.03.47v-.02,60.16c-.09,3.15-2.23,5.82-5.22,6.92l-.06.02-84.19,24.74,84.22,24.75c3.06,1.11,5.19,3.79,5.27,6.94v60.21c0,.38-.05.76-.13,1.12v-.03c-.48,2.73-2.47,4.94-5.13,5.9l-.06.02L27.83,254.73c-.43.14-.94.22-1.46.23-2.12-.05-3.82-1.67-3.82-3.65,0-.15.01-.3.03-.44v.02h-.01s0,.01,0,.01Z"/>
  <path class="st0" d="M143.95,96.95l84.22,24.75c3.06,1.11,5.19,3.79,5.27,6.94v60.21c0,.38-.05.76-.13,1.12v-.03c-.48,2.73-2.47,4.94-5.13,5.9l-.06.02-115.23-37.05-85.09-25.03c-2.07-.73-3.69-2.17-4.54-3.99l-.02-.05c-.43-.68-.7-1.48-.7-2.35v-.15h0s0-60.69,0-60.69c0-.88.26-1.7.73-2.4v.02c.87-1.87,2.49-3.31,4.5-4.01l.06-.02"/>
</svg>