<?xml version="1.0" encoding="UTF-8"?>
<svg id="Layer_1" xmlns="http://www.w3.org/2000/svg" width="256" height="256" version="1.1" viewBox="0 0 256 256">
  <!-- Generator: Adobe Illustrator 29.8.4, SVG Export Plug-In . SVG Version: 2.1.1 Build 6)  -->
  <defs>
    <style>
      .st0 {
        fill: #f7f7f7;
      }
    </style>
  </defs>
  <g id="Group_2">
    <path id="Path_4" class="st0" d="M68.67,82.52h-10.35v28.39h-21.85V13.02h42.64c4.63-.03,9.23.9,13.49,2.72,8.34,3.48,14.97,10.1,18.45,18.44,1.82,4.27,2.75,8.86,2.72,13.5.01,3.61-.56,7.2-1.7,10.62-1.09,3.31-2.64,6.44-4.62,9.3-1.96,2.84-4.31,5.38-7,7.54-2.68,2.18-5.7,3.9-8.94,5.1l22.23,30.62h-26.8l-18.27-28.34ZM58.31,61.97h20.83c1.9.02,3.78-.37,5.53-1.12,3.43-1.46,6.16-4.19,7.62-7.62.76-1.74,1.14-3.63,1.12-5.53.06-3.52-1.27-6.91-3.7-9.46-2.31-2.56-5.46-4.22-8.88-4.68h-22.56v28.4h.04Z"/>
  </g>
  <g id="Group_3">
    <path id="Path_5" class="st0" d="M167.78,89.1h45.69v21.81h-69.76V13.02h69.76v21.85h-45.69v15.26h38.13v21.78h-38.13v17.19Z"/>
  </g>
  <g id="Group_4">
    <path id="Path_6" class="st0" d="M110.86,178.22c.03,4.64-.9,9.23-2.72,13.49-1.75,4.13-4.26,7.9-7.4,11.11-3.16,3.19-6.92,5.73-11.06,7.49-4.26,1.82-8.85,2.74-13.49,2.71h-20.84v28.39h-21.79v-97.89h42.62c4.63-.03,9.23.9,13.49,2.72,8.35,3.47,14.98,10.1,18.45,18.44,1.83,4.28,2.76,8.89,2.74,13.55ZM55.34,192.49h20.83c1.91.02,3.79-.37,5.54-1.12,3.42-1.47,6.15-4.19,7.62-7.62,2.15-5.07,1.14-10.92-2.59-14.97-2.32-2.56-5.46-4.21-8.88-4.68h-22.51v28.4h0Z"/>
  </g>
  <g id="Group_5">
    <path id="Path_7" class="st0" d="M132.85,191.16c-.06-6.93,1.2-13.81,3.71-20.27,2.34-6.06,5.79-11.63,10.16-16.43,4.25-4.63,9.37-8.37,15.07-11.03,5.79-2.69,12.1-4.08,18.48-4.05,6.46-.05,12.85,1.33,18.71,4.05,5.73,2.64,10.88,6.38,15.16,11.03,4.38,4.8,7.82,10.37,10.16,16.43,2.51,6.46,3.77,13.34,3.71,20.27.05,6.86-1.21,13.68-3.71,20.07-2.35,6.04-5.79,11.59-10.16,16.37-4.27,4.64-9.42,8.38-15.16,11.01-5.86,2.71-12.25,4.09-18.71,4.05-6.38.03-12.7-1.35-18.48-4.05-5.7-2.64-10.82-6.39-15.07-11.01-4.37-4.78-7.81-10.33-10.16-16.37-2.51-6.39-3.77-13.2-3.71-20.07ZM152.55,191.16c-.03,4.05.71,8.07,2.2,11.83,1.39,3.52,3.41,6.76,5.96,9.56,2.48,2.7,5.47,4.88,8.8,6.41,3.38,1.55,7.05,2.35,10.77,2.33,3.78.02,7.52-.78,10.97-2.33,3.37-1.52,6.4-3.7,8.91-6.41,2.59-2.77,4.61-6.01,5.96-9.56,1.47-3.77,2.2-7.79,2.16-11.83.03-4.05-.7-8.07-2.16-11.85-1.36-3.55-3.38-6.82-5.96-9.62-2.51-2.75-5.54-4.97-8.91-6.55-3.43-1.6-7.18-2.42-10.97-2.4-3.72,0-7.4.81-10.77,2.4-3.33,1.59-6.32,3.81-8.8,6.55-2.54,2.83-4.56,6.08-5.96,9.62-1.49,3.77-2.23,7.79-2.2,11.85Z"/>
  </g>
</svg>