<?xml version="1.0" encoding="UTF-8"?>
<svg id="Layer_1" xmlns="http://www.w3.org/2000/svg" width="256" height="256" version="1.1" viewBox="0 0 256 256">
  <!-- Generator: Adobe Illustrator 29.8.4, SVG Export Plug-In . SVG Version: 2.1.1 Build 6)  -->
  <defs>
    <style>
      .st0 {
        fill: #fff;
      }
    </style>
  </defs>
  <path class="st0" d="M25.88,2.25C12.88,2.25,2.25,12.89,2.25,25.88v70.87c0,12.99,7.52,31.14,16.7,40.33l109.78,109.78c9.19,9.19,24.22,9.19,33.41,0l84.71-84.71c9.19-9.19,9.19-24.22,0-33.41L137.07,18.95c-9.19-9.19-27.33-16.7-40.33-16.7H25.88M33.69,57.27c0-13.02,10.56-23.58,23.58-23.58s23.58,10.56,23.58,23.58-10.56,23.58-23.58,23.58-23.58-10.56-23.58-23.58Z"/>
</svg>