<?xml version="1.0" encoding="UTF-8"?>
<svg id="Layer_1" xmlns="http://www.w3.org/2000/svg" width="256" height="256" version="1.1" viewBox="0 0 256 256">
  <!-- Generator: Adobe Illustrator 29.8.4, SVG Export Plug-In . SVG Version: 2.1.1 Build 6)  -->
  <defs>
    <style>
      .st0 {
        fill: #fff;
      }
    </style>
  </defs>
  <path class="st0" d="M74.73,99.63v95.02h-39.65v-95.02H4.71v-38.28h100.29v38.28h-30.27Z"/>
  <path class="st0" d="M209.79,129.51l41.5,1.07c-2.73,21.48-10.17,38.09-22.31,49.8-12.14,11.72-27.98,17.58-47.51,17.58s-36.47-6.66-49.85-19.97c-13.38-13.31-20.07-29.83-20.07-49.56s6.82-36.56,20.46-50.1c13.64-13.54,30.45-20.31,50.44-20.31s36.07,6.64,49.22,19.92c9.11,9.18,15.56,21.97,19.34,38.38l-42.48,2.83c-4.75-14.58-13.77-21.88-27.05-21.88-8.46,0-15.45,2.93-20.95,8.79-5.5,5.86-8.25,13.31-8.25,22.36s2.7,15.93,8.11,21.63c5.4,5.7,12.24,8.54,20.51,8.54s15.09-2.5,20.07-7.52c4.98-5.01,7.93-12.21,8.84-21.58Z"/>
</svg>