<?xml version="1.0" encoding="UTF-8"?>
<svg id="Layer_1" xmlns="http://www.w3.org/2000/svg" width="256" height="256" version="1.1" viewBox="0 0 256 256">
  <!-- Generator: Adobe Illustrator 29.8.4, SVG Export Plug-In . SVG Version: 2.1.1 Build 6)  -->
  <defs>
    <style>
      .st0 {
        fill: #fff;
      }
    </style>
  </defs>
  <path class="st0" d="M175.75,5.23c-10.44.08-21.59,3.5-25.39,13.36-6.22,1.97-10.03,5.51-10.04,9.34.01,5.74,8.45,10.49,19.31,10.88,9.33,2.29,22.5-2.01,29.67-13.26,11.85,5.12,26.42,11.45,29.83,24.85,6.86,27-10.14,77.67-20.15,81.1-28.69,9.84-60.34,11.15-80.32,24.07-23.06,14.91-38.01,43.33-58.87,48.71-16.97,4.38-50.59-3.81-54.73,9.49-.63,4.58,3.17,8.76,13.65.04,15.11,4.1,55.94,18.62,94.39-12.19,2.43,1.51,4.92,2.89,7.48,4.16.52,14.65,4.27,30.35,6.6,45h24.6l-2.59-23.43c2.63-8.59,5.8-13.51,7.74-22.83l9.31,1.82c-1.06,5.4-2.06,6.47-3.98,11.64,5.63.27,12.05-.04,17.86-.54-4.06-9.36-6.26-21.88-8.37-30.22l9.19-2.32c2.91,11.5,7.56,27.47,9.47,31.76,1.71,3.83,5.95,34.12,5.95,34.12h19.61l3.96-45.17c15.06-8.91,20.07-19.56,22.99-31.72,10.2-42.49,12.58-88.9-3.92-128.46-10.33-24.76-30.22-32.01-48.4-37.94-3.93-1.4-9.29-2.31-14.86-2.27h0ZM241.28,198.74c-3.27,4.08-7.34,8.05-12.32,11.73-1.05,12.99-2.02,27.2-3.1,40.3h17.26s-1.04-29.99-1.84-52.04h0ZM180.92,226.65c-6.23.61-13.54.66-20.98.15l2.55,23.97h22.01l-3.58-24.12Z"/>
</svg>