<?xml version="1.0" encoding="UTF-8"?>
<svg id="Layer_1" xmlns="http://www.w3.org/2000/svg" width="256" height="256" version="1.1" viewBox="0 0 256 256">
  <!-- Generator: Adobe Illustrator 29.8.4, SVG Export Plug-In . SVG Version: 2.1.1 Build 6)  -->
  <path d="M189.2,65.49c-24.55,0-36.41,14.12-36.58,14.32,25.5,2.6,56.8,20.57,56.8,57.83s-23.71,52.63-43.09,58.11c-.08.13-.16.27-.24.41,8.41-14.45,13.21-30.47,13.21-45.46,0-29.43-16.68-55.65-50.95-55.65-31.01,0-45.75,22.8-49.69,43.76v.06c.78-4.21,2.34-8.1,4.52-11.55-2.18,3.43-3.73,7.32-4.5,11.51v.09c-.16.87-.31,1.74-.44,2.6-.48,3.98-.72,7.99-.71,12.01,0,17.4,7.42,33.01,13.21,42.53-19.57-5.17-44.15-21.56-44.15-58.39s31.32-55.24,56.82-57.83c0,0-11.89-14.33-36.59-14.33C38.92,65.52.04,85.04.04,135.95H0c0,2.96.13,5.94.42,8.99,0-.01,0-.03-.01-.04,4.13,45.4,39.09,98.8,90.44,98.8,13.51,0,26.16-3.68,37.44-9.88-.11.06-.21.12-.32.18,11.36,6.31,24.13,9.66,37.12,9.72,51.26,0,86.19-53.23,90.42-98.58.02-.08.04-.15.06-.22.28-3.05.41-6.04.41-8.99,0-50.93-38.85-70.44-66.78-70.44ZM114.9,147.42c0-18.52,9.91-26.44,13.21-28.56,0,0,0,0,0,0,7.43,5.55,13.83,14.89,13.83,29.83,0,12.75-4.95,25.78-13.73,36.31-2.37-2.97-13.31-17.77-13.31-37.58Z" fill="#fff"/>
  <path d="M137.59,19.01c-12.76,6.65-20.47,20.13-19.74,34.49.74,14.01,11.43,24.3,11.43,24.3,0,0,2-16.72,21.06-27.98,25.9-15.3,54.07-2.52,54.07-2.52,2.9-14.53-15.48-35.07-41.12-35.07-9,.09-17.83,2.42-25.7,6.78Z" fill="#fff"/>
</svg>