<?xml version="1.0" encoding="UTF-8"?>
<svg id="Layer_1" xmlns="http://www.w3.org/2000/svg" width="256" height="256" version="1.1" viewBox="0 0 256 256">
  <!-- Generator: Adobe Illustrator 29.8.4, SVG Export Plug-In . SVG Version: 2.1.1 Build 6)  -->
  <defs>
    <style>
      .st0 {
        fill: #fff;
      }
    </style>
  </defs>
  <path id="path2448" class="st0" d="M6,78.27c3.47,1.46,5.74,10.41,5.74,10.41l21.49,74.75c2.48,9.35,10.31,14.28,19.09,14.28h47.12c-3.37-.6-7.07-10.55-7.07-10.55l-23.89-74.35c-3.44-11.36-9.24-14.55-18.02-14.55H6ZM205.42,78.27c-8.8,0-14.5,3.19-17.89,14.55l-24.03,74.35s-3.66,9.94-7.07,10.55h47.12c8.81,0,16.58-4.93,19.09-14.28l21.49-74.75s2.34-8.95,5.87-10.41h-44.58ZM101.84,78.81v98.91h52.46v-98.91h-52.46Z"/>
</svg>