<?xml version="1.0" encoding="UTF-8"?>
<svg id="Layer_1" xmlns="http://www.w3.org/2000/svg" width="256" height="256" version="1.1" viewBox="0 0 256 256">
  <!-- Generator: Adobe Illustrator 29.8.4, SVG Export Plug-In . SVG Version: 2.1.1 Build 6)  -->
  <defs>
    <style>
      .st0 {
        fill: #fff;
        fill-rule: evenodd;
      }
    </style>
  </defs>
  <path class="st0" d="M216.9,38.59C193.32,14.98,161.95,1.97,128.53,1.95,59.68,1.95,3.64,57.99,3.62,126.86c0,22.02,5.74,43.51,16.67,62.45L2.57,254.05l66.22-17.37c18.25,9.95,38.79,15.2,59.7,15.2h.05s0,0,0,0c68.85,0,124.89-56.04,124.92-124.92.01-33.38-12.97-64.76-36.55-88.37h0ZM77.81,131.41c-1.56-2.08-12.74-16.92-12.74-32.29s8.06-22.91,10.92-26.04c2.86-3.12,6.24-3.9,8.32-3.9s4.16.02,5.98.11c1.92.1,4.49-.73,7.02,5.36,2.6,6.25,8.84,21.62,9.62,23.18.78,1.56,1.3,3.38.26,5.47-1.04,2.08-1.56,3.38-3.12,5.21s-3.28,4.07-4.68,5.47c-1.56,1.56-3.19,3.25-1.37,6.37,1.82,3.13,8.08,13.35,17.36,21.62,11.92,10.64,21.98,13.93,25.1,15.49s4.94,1.3,6.76-.78,7.8-9.11,9.88-12.24c2.08-3.12,4.16-2.6,7.02-1.56,2.86,1.04,18.21,8.59,21.33,10.15,3.12,1.56,5.2,2.34,5.98,3.65s.78,7.55-1.82,14.84-15.07,13.95-21.07,14.84c-5.38.8-12.18,1.14-19.66-1.24-4.53-1.44-10.35-3.36-17.79-6.57-31.31-13.52-51.75-45.05-53.32-47.13h0Z"/>
</svg>