<?xml version="1.0" encoding="UTF-8"?>
<svg id="Layer_1" xmlns="http://www.w3.org/2000/svg" width="256" height="256" version="1.1" viewBox="0 0 256 256">
  <!-- Generator: Adobe Illustrator 29.8.4, SVG Export Plug-In . SVG Version: 2.1.1 Build 6)  -->
  <defs>
    <style>
      .st0 {
        fill: #fff;
      }
    </style>
  </defs>
  <path class="st0" d="M50.25,1.04h15.23l10.45,39.17L85.63,1.04h15.38l-17.62,58.25v39.75h-15.14v-39.75L50.25,1.04h0ZM120.02,26.14c-11.84,0-19.69,7.83-19.69,19.42v35.43c0,12.74,6.66,19.37,19.69,19.37,10.81,0,19.32-7.23,19.32-19.37v-35.43c0-11.31-8.43-19.42-19.32-19.42h0ZM125.64,80.39c0,3.94-2.01,6.83-5.63,6.83s-5.86-3.04-5.86-6.83v-33.64c0-3.96,1.82-6.89,5.6-6.89,4.13,0,5.89,2.85,5.89,6.89v33.64h0ZM175.68,26.75v54.87c-1.64,2.05-5.29,5.42-7.9,5.42-2.87,0-3.58-1.97-3.58-4.87V26.75h-13.44v60.41c0,7.14,2.18,12.91,9.38,12.91,4.06,0,9.71-2.12,15.53-9.03v7.98h13.44V26.75h-13.44ZM198.98,173.37c-4.74,0-5.72,3.33-5.72,8.07v6.97h11.31v-6.98c.01-4.66-.97-8.06-5.59-8.06h0ZM149.22,173.79c-.89.46-1.77,1.15-2.65,2.1v42.9c1.05,1.12,2.05,1.93,3.04,2.42,2.08,1.06,5.13,1.13,6.55-.71.74-.97,1.11-2.55,1.11-4.75v-35.54c0-2.33-.46-4.08-1.37-5.29-1.56-2.04-4.44-2.26-6.69-1.13h0ZM200.3,118.83c-27.55-1.87-117.08-1.87-144.59,0-29.77,2.03-33.29,20.02-33.51,67.37.22,47.26,3.7,65.33,33.51,67.37,27.51,1.87,117.04,1.87,144.59,0,29.77-2.03,33.29-20.03,33.51-67.37-.22-47.26-3.7-65.33-33.51-67.37h0ZM69.9,231.89h-14.42v-79.78h-14.92v-13.54h44.25v13.54h-14.92v79.78h.01,0ZM121.18,231.89h-12.8v-7.6c-2.36,2.8-4.81,4.94-7.36,6.4-6.9,3.96-16.37,3.86-16.37-10.1v-57.54h12.79v52.78c0,2.77.67,4.63,3.41,4.63,2.5,0,5.97-3.21,7.52-5.15v-52.26h12.8v68.84h.01,0ZM170.45,217.63c0,8.52-3.18,15.14-11.7,15.14-4.69,0-8.59-1.71-12.16-6.17v5.29h-12.92v-93.32h12.92v30.05c2.89-3.52,6.81-6.43,11.39-6.43,9.37,0,12.49,7.92,12.49,17.26v38.18h-.01ZM217.75,199.09h-24.48v12.99c0,5.16.44,9.63,5.59,9.63,5.41,0,5.72-3.64,5.72-9.63v-4.78h13.17v5.17c0,13.26-5.69,21.3-19.18,21.3-12.22,0-18.47-8.91-18.47-21.3v-30.91c0-11.95,7.89-20.25,19.44-20.25,12.28,0,18.21,7.81,18.21,20.25v17.52h.01,0Z"/>
</svg>