<?xml version="1.0" encoding="UTF-8"?>
<svg id="Layer_1" xmlns="http://www.w3.org/2000/svg" width="256" height="256" version="1.1" viewBox="0 0 256 256">
  <!-- Generator: Adobe Illustrator 29.8.4, SVG Export Plug-In . SVG Version: 2.1.1 Build 6)  -->
  <defs>
    <style>
      .st0 {
        fill: #fff;
        fill-rule: evenodd;
      }
    </style>
  </defs>
  <path class="st0" d="M217.66,203.67h-14.53v28.67h-26.23v-96.6h41.7c21.46,0,35.84,13.59,35.84,34.15s-14.76,33.77-36.79,33.77h0ZM212.38,156.69h-9.24v26.6h9.24c9.2,0,14.72-5.14,14.72-13.39s-5.52-13.21-14.72-13.21h0ZM101.09,135.75h26.22v75.46h39.06v21.13h-65.28v-96.6h0ZM40.94,232.34H3.78v-96.6h36.79c29.81,0,48.48,18.12,48.48,48.3s-18.68,48.3-48.11,48.3h0ZM39.24,158.01h-9.25v52.07h10c14.34,0,22.64-5.85,22.64-26.03s-8.3-26.03-23.4-26.03h0ZM202.23,71.95h45.28v19.62h-45.28v-19.62h0ZM165.27,120.25h-25.84V44.79h-29.06v-21.13h83.96v21.13h-29.06v75.46h0ZM63.06,120.25h-26.04v-30.37L1.55,23.66h29.24l18.86,39.24h.76l18.86-39.24h29.24l-35.47,66.22v30.37h0Z"/>
</svg>